<?xml version="1.0" encoding="UTF-8" standalone="no"?>
<!DOCTYPE svg PUBLIC "-//W3C//DTD SVG 1.1//EN"
 "http://www.w3.org/Graphics/SVG/1.1/DTD/svg11.dtd">
<!-- Generated by graphviz version 2.40.1 (20161225.0304)
 -->
<!-- Title: %0 Pages: 1 -->
<svg width="862pt" height="928pt"
 viewBox="0.00 0.00 862.14 927.61" xmlns="http://www.w3.org/2000/svg" xmlns:xlink="http://www.w3.org/1999/xlink">
<g id="graph0" class="graph" transform="scale(1 1) rotate(0) translate(4 923.6062)">
<title>%0</title>
<polygon fill="#ffffff" stroke="transparent" points="-4,4 -4,-923.6062 858.1402,-923.6062 858.1402,4 -4,4"/>
<!-- 1&#45;&gt;21 -->
<g id="edge43" class="edge">
<title>1&#45;&gt;21</title>
<path fill="none" stroke="#cccccc" d="M301.5082,-327.2239C307.9663,-319.1924 316.1352,-309.0333 323.1068,-300.3633"/>
<polygon fill="#cccccc" stroke="#cccccc" points="324.6508,-301.2358 326.4202,-296.2426 321.9232,-299.0425 324.6508,-301.2358"/>
</g>
<!-- 1&#45;&gt;27 -->
<g id="edge47" class="edge">
<title>1&#45;&gt;27</title>
<path fill="none" stroke="#cccccc" d="M286.8787,-323.5766C284.8151,-312.4568 282.1347,-298.0131 279.9113,-286.032"/>
<polygon fill="#cccccc" stroke="#cccccc" points="281.6225,-285.6616 278.9895,-281.0648 278.1813,-286.3002 281.6225,-285.6616"/>
</g>
<!-- 1&#45;&gt;32 -->
<g id="edge53" class="edge">
<title>1&#45;&gt;32</title>
<path fill="none" stroke="#cccccc" d="M301.0692,-355.6706C321.3402,-382.3609 364.8305,-439.6238 387.4225,-469.3703"/>
<polygon fill="#cccccc" stroke="#cccccc" points="386.181,-470.6292 390.5988,-473.5526 388.9683,-468.5123 386.181,-470.6292"/>
</g>
<!-- 1&#45;&gt;39 -->
<g id="edge68" class="edge">
<title>1&#45;&gt;39</title>
<path fill="none" stroke="#cccccc" d="M272.2229,-345.2146C256.2213,-348.6847 232.71,-353.7834 215.3297,-357.5525"/>
<polygon fill="#cccccc" stroke="#cccccc" points="214.6632,-355.9063 210.1477,-358.6763 215.405,-359.3268 214.6632,-355.9063"/>
</g>
<!-- 1&#45;&gt;40 -->
<g id="edge11" class="edge">
<title>1&#45;&gt;40</title>
<path fill="none" stroke="#cccccc" d="M274.7304,-350.964C248.3691,-367.4243 194.7221,-400.9223 165.6588,-419.0699"/>
<polygon fill="#cccccc" stroke="#cccccc" points="164.5276,-417.713 161.2134,-421.8457 166.3814,-420.6818 164.5276,-417.713"/>
</g>
<!-- 1&#45;&gt;42 -->
<g id="edge28" class="edge">
<title>1&#45;&gt;42</title>
<path fill="none" stroke="#cccccc" d="M297.0514,-324.4394C309.447,-294.0203 335.5117,-230.0564 349.2009,-196.4627"/>
<polygon fill="#cccccc" stroke="#cccccc" points="350.8615,-197.025 351.1278,-191.7342 347.6203,-195.7041 350.8615,-197.025"/>
</g>
<!-- 2&#45;&gt;3 -->
<g id="edge32" class="edge">
<title>2&#45;&gt;3</title>
<path fill="none" stroke="#cccccc" d="M756.3022,-359.3487C746.4325,-369.9938 732.5438,-384.9737 721.8634,-396.4932"/>
<polygon fill="#cccccc" stroke="#cccccc" points="720.491,-395.3995 718.3748,-400.2559 723.0576,-397.7792 720.491,-395.3995"/>
</g>
<!-- 2&#45;&gt;19 -->
<g id="edge36" class="edge">
<title>2&#45;&gt;19</title>
<path fill="none" stroke="#cccccc" d="M751.6401,-339.8372C740.0102,-335.6342 724.502,-330.0295 711.9689,-325.5001"/>
<polygon fill="#cccccc" stroke="#cccccc" points="712.4483,-323.8126 707.1511,-323.759 711.2586,-327.1043 712.4483,-323.8126"/>
</g>
<!-- 2&#45;&gt;48 -->
<g id="edge55" class="edge">
<title>2&#45;&gt;48</title>
<path fill="none" stroke="#cccccc" d="M783.9894,-355.5774C793.5132,-361.5386 805.8638,-369.2691 816.1551,-375.7107"/>
<polygon fill="#cccccc" stroke="#cccccc" points="815.2586,-377.2141 820.4253,-378.3835 817.1156,-374.2473 815.2586,-377.2141"/>
</g>
<!-- 2&#45;&gt;49 -->
<g id="edge70" class="edge">
<title>2&#45;&gt;49</title>
<path fill="none" stroke="#cccccc" d="M773.7473,-328.6264C777.204,-316.7727 781.8135,-300.9662 785.5386,-288.192"/>
<polygon fill="#cccccc" stroke="#cccccc" points="787.2507,-288.5716 786.9706,-283.2816 783.8907,-287.5917 787.2507,-288.5716"/>
</g>
<!-- 3&#45;&gt;22 -->
<g id="edge33" class="edge">
<title>3&#45;&gt;22</title>
<path fill="none" stroke="#cccccc" d="M689.3399,-406.4314C669.4691,-397.9148 636.2318,-383.6694 614.4547,-374.3359"/>
<polygon fill="#cccccc" stroke="#cccccc" points="615.0062,-372.6683 609.7211,-372.3071 613.6274,-375.8853 615.0062,-372.6683"/>
</g>
<!-- 3&#45;&gt;46 -->
<g id="edge59" class="edge">
<title>3&#45;&gt;46</title>
<path fill="none" stroke="#cccccc" d="M715.3242,-429.0586C722.4281,-440.877 732.2733,-457.2559 739.974,-470.0673"/>
<polygon fill="#cccccc" stroke="#cccccc" points="738.6292,-471.2269 742.7051,-474.6107 741.629,-469.4237 738.6292,-471.2269"/>
</g>
<!-- 4&#45;&gt;18 -->
<g id="edge57" class="edge">
<title>4&#45;&gt;18</title>
<path fill="none" stroke="#cccccc" d="M91.8151,-297.6771C103.8745,-281.5983 123.36,-255.6185 136.553,-238.0283"/>
<polygon fill="#cccccc" stroke="#cccccc" points="138.1631,-238.7981 139.7632,-233.7481 135.3631,-236.698 138.1631,-238.7981"/>
</g>
<!-- 4&#45;&gt;37 -->
<g id="edge44" class="edge">
<title>4&#45;&gt;37</title>
<path fill="none" stroke="#cccccc" d="M91.3367,-327.078C97.4041,-335.7662 105.1173,-346.811 111.6116,-356.1106"/>
<polygon fill="#cccccc" stroke="#cccccc" points="110.2019,-357.1485 114.4995,-360.2458 113.0714,-355.1445 110.2019,-357.1485"/>
</g>
<!-- 4&#45;&gt;40 -->
<g id="edge7" class="edge">
<title>4&#45;&gt;40</title>
<path fill="none" stroke="#cccccc" d="M89.6943,-328.2639C101.3802,-349.7175 122.0749,-387.71 134.8238,-411.1151"/>
<polygon fill="#cccccc" stroke="#cccccc" points="133.334,-412.0387 137.2626,-415.5924 136.4076,-410.3644 133.334,-412.0387"/>
</g>
<!-- 5&#45;&gt;34 -->
<g id="edge18" class="edge">
<title>5&#45;&gt;34</title>
<path fill="none" stroke="#cccccc" d="M486.3765,-330.0776C468.3229,-337.1154 439.6202,-348.3046 419.9166,-355.9856"/>
<polygon fill="#cccccc" stroke="#cccccc" points="419.136,-354.4116 415.1131,-357.8582 420.4073,-357.6726 419.136,-354.4116"/>
</g>
<!-- 6&#45;&gt;32 -->
<g id="edge51" class="edge">
<title>6&#45;&gt;32</title>
<path fill="none" stroke="#cccccc" d="M303.8366,-482.796C324.0105,-483.9051 356.6597,-485.7002 378.6402,-486.9086"/>
<polygon fill="#cccccc" stroke="#cccccc" points="378.6205,-488.6601 383.7091,-487.1873 378.8127,-485.1654 378.6205,-488.6601"/>
</g>
<!-- 6&#45;&gt;40 -->
<g id="edge10" class="edge">
<title>6&#45;&gt;40</title>
<path fill="none" stroke="#cccccc" d="M268.5668,-475.6218C243.3022,-466.5188 196.0584,-449.4967 168.1463,-439.4398"/>
<polygon fill="#cccccc" stroke="#cccccc" points="168.4663,-437.695 163.1691,-437.6465 167.2798,-440.9878 168.4663,-437.695"/>
</g>
<!-- 7&#45;&gt;16 -->
<g id="edge41" class="edge">
<title>7&#45;&gt;16</title>
<path fill="none" stroke="#cccccc" d="M229.1748,-464.2895C224.2296,-493.8742 214.3802,-552.7976 208.9289,-585.4099"/>
<polygon fill="#cccccc" stroke="#cccccc" points="207.1915,-585.1894 208.0931,-590.4095 210.6436,-585.7665 207.1915,-585.1894"/>
</g>
<!-- 7&#45;&gt;17 -->
<g id="edge65" class="edge">
<title>7&#45;&gt;17</title>
<path fill="none" stroke="#cccccc" d="M231.989,-464.423C231.8595,-476.7786 231.6867,-493.2545 231.5471,-506.5696"/>
<polygon fill="#cccccc" stroke="#cccccc" points="229.7961,-506.6699 231.4935,-511.688 233.2959,-506.7067 229.7961,-506.6699"/>
</g>
<!-- 7&#45;&gt;34 -->
<g id="edge22" class="edge">
<title>7&#45;&gt;34</title>
<path fill="none" stroke="#cccccc" d="M248.4091,-438.3154C278.6,-423.4298 343.3731,-391.4935 377.0209,-374.9034"/>
<polygon fill="#cccccc" stroke="#cccccc" points="378.0411,-376.3517 381.7517,-372.5709 376.4933,-373.2125 378.0411,-376.3517"/>
</g>
<!-- 7&#45;&gt;37 -->
<g id="edge45" class="edge">
<title>7&#45;&gt;37</title>
<path fill="none" stroke="#cccccc" d="M216.7979,-436.1045C197.6371,-423.3813 164.8918,-401.6377 144.0828,-387.8202"/>
<polygon fill="#cccccc" stroke="#cccccc" points="144.9662,-386.3061 139.8328,-384.9981 143.0301,-389.2219 144.9662,-386.3061"/>
</g>
<!-- 7&#45;&gt;39 -->
<g id="edge69" class="edge">
<title>7&#45;&gt;39</title>
<path fill="none" stroke="#cccccc" d="M224.3026,-429.7668C218.0233,-416.5717 209.1871,-398.0036 202.3921,-383.7247"/>
<polygon fill="#cccccc" stroke="#cccccc" points="203.9013,-382.8235 200.1725,-379.0606 200.7409,-384.3275 203.9013,-382.8235"/>
</g>
<!-- 7&#45;&gt;40 -->
<g id="edge12" class="edge">
<title>7&#45;&gt;40</title>
<path fill="none" stroke="#cccccc" d="M214.2983,-443.2306C201.1077,-440.9531 183.0527,-437.8358 168.8025,-435.3754"/>
<polygon fill="#cccccc" stroke="#cccccc" points="168.9655,-433.6277 163.7406,-434.5014 168.37,-437.0767 168.9655,-433.6277"/>
</g>
<!-- 8&#45;&gt;17 -->
<g id="edge64" class="edge">
<title>8&#45;&gt;17</title>
<path fill="none" stroke="#cccccc" d="M153.1619,-521.2992C168.7558,-522.9872 191.352,-525.4332 208.2388,-527.2612"/>
<polygon fill="#cccccc" stroke="#cccccc" points="208.1229,-529.0088 213.2822,-527.8071 208.4996,-525.5291 208.1229,-529.0088"/>
</g>
<!-- 8&#45;&gt;40 -->
<g id="edge8" class="edge">
<title>8&#45;&gt;40</title>
<path fill="none" stroke="#cccccc" d="M137.3017,-501.1222C138.9672,-487.5935 141.251,-469.0426 143.0439,-454.4796"/>
<polygon fill="#cccccc" stroke="#cccccc" points="144.806,-454.4878 143.6801,-449.3114 141.3322,-454.0601 144.806,-454.4878"/>
</g>
<!-- 9&#45;&gt;18 -->
<g id="edge56" class="edge">
<title>9&#45;&gt;18</title>
<path fill="none" stroke="#cccccc" d="M139.7266,-284.2476C141.7766,-271.9735 144.5102,-255.6064 146.7194,-242.3791"/>
<polygon fill="#cccccc" stroke="#cccccc" points="148.471,-242.5145 147.5687,-237.2945 145.0188,-241.9378 148.471,-242.5145"/>
</g>
<!-- 9&#45;&gt;39 -->
<g id="edge66" class="edge">
<title>9&#45;&gt;39</title>
<path fill="none" stroke="#cccccc" d="M149.0599,-315.6183C157.1206,-324.3635 167.7244,-335.8678 176.4153,-345.2968"/>
<polygon fill="#cccccc" stroke="#cccccc" points="175.3344,-346.7061 180.0099,-349.1966 177.9079,-344.334 175.3344,-346.7061"/>
</g>
<!-- 9&#45;&gt;40 -->
<g id="edge6" class="edge">
<title>9&#45;&gt;40</title>
<path fill="none" stroke="#cccccc" d="M137.9964,-320.196C139.6211,-343.1087 142.4343,-382.7833 144.2248,-408.0337"/>
<polygon fill="#cccccc" stroke="#cccccc" points="142.4912,-408.328 144.5906,-413.1917 145.9824,-408.0804 142.4912,-408.328"/>
</g>
<!-- 10&#45;&gt;12 -->
<g id="edge3" class="edge">
<title>10&#45;&gt;12</title>
<path fill="none" stroke="#cccccc" d="M159.961,-638.4357C155.6896,-634.5055 150.909,-630.1068 146.4189,-625.9753"/>
<polygon fill="#cccccc" stroke="#cccccc" points="147.5974,-624.6816 142.733,-622.5839 145.2275,-627.2572 147.5974,-624.6816"/>
</g>
<!-- 10&#45;&gt;16 -->
<g id="edge39" class="edge">
<title>10&#45;&gt;16</title>
<path fill="none" stroke="#cccccc" d="M184.4932,-636.0063C186.6503,-633.1195 188.9374,-630.0587 191.1726,-627.0675"/>
<polygon fill="#cccccc" stroke="#cccccc" points="192.5802,-628.1074 194.1713,-623.0545 189.7765,-626.0123 192.5802,-628.1074"/>
</g>
<!-- 10&#45;&gt;17 -->
<g id="edge61" class="edge">
<title>10&#45;&gt;17</title>
<path fill="none" stroke="#cccccc" d="M181.2286,-634.4946C191.5852,-612.8329 209.8815,-574.5647 221.258,-550.7699"/>
<polygon fill="#cccccc" stroke="#cccccc" points="222.8587,-551.4789 223.4367,-546.2131 219.701,-549.9692 222.8587,-551.4789"/>
</g>
<!-- 11&#45;&gt;12 -->
<g id="edge2" class="edge">
<title>11&#45;&gt;12</title>
<path fill="none" stroke="#cccccc" d="M77.2098,-561.0178C87.3113,-570.5597 101.3108,-583.7838 112.261,-594.1274"/>
<polygon fill="#cccccc" stroke="#cccccc" points="111.3079,-595.6344 116.1444,-597.7957 113.7113,-593.09 111.3079,-595.6344"/>
</g>
<!-- 11&#45;&gt;40 -->
<g id="edge4" class="edge">
<title>11&#45;&gt;40</title>
<path fill="none" stroke="#cccccc" d="M74.3535,-533.6901C89.1036,-512.6005 116.1505,-473.9293 132.427,-450.6573"/>
<polygon fill="#cccccc" stroke="#cccccc" points="133.9038,-451.5992 135.3355,-446.4988 131.0357,-449.5932 133.9038,-451.5992"/>
</g>
<!-- 12&#45;&gt;16 -->
<g id="edge38" class="edge">
<title>12&#45;&gt;16</title>
<path fill="none" stroke="#cccccc" d="M147.6841,-609.835C157.9153,-609.5902 170.7667,-609.2827 181.7134,-609.0208"/>
<polygon fill="#cccccc" stroke="#cccccc" points="181.9577,-610.7655 186.9143,-608.8963 181.8739,-607.2665 181.9577,-610.7655"/>
</g>
<!-- 12&#45;&gt;17 -->
<g id="edge60" class="edge">
<title>12&#45;&gt;17</title>
<path fill="none" stroke="#cccccc" d="M143.5298,-599.0782C161.612,-584.7977 192.9224,-560.0701 212.8495,-544.3325"/>
<polygon fill="#cccccc" stroke="#cccccc" points="214.0808,-545.5901 216.92,-541.1178 211.9115,-542.8434 214.0808,-545.5901"/>
</g>
<!-- 13&#45;&gt;18 -->
<g id="edge58" class="edge">
<title>13&#45;&gt;18</title>
<path fill="none" stroke="#cccccc" d="M138.1068,-144.7534C140.5626,-159.4547 144.0641,-180.4163 146.7302,-196.3767"/>
<polygon fill="#cccccc" stroke="#cccccc" points="145.0497,-196.9381 147.5996,-201.5814 148.5018,-196.3613 145.0497,-196.9381"/>
</g>
<!-- 14&#45;&gt;16 -->
<g id="edge42" class="edge">
<title>14&#45;&gt;16</title>
<path fill="none" stroke="#cccccc" d="M175.3277,-717.2572C181.4906,-694.7178 192.1876,-655.5964 198.9352,-630.9187"/>
<polygon fill="#cccccc" stroke="#cccccc" points="200.6813,-631.1677 200.3121,-625.8832 197.3052,-630.2446 200.6813,-631.1677"/>
</g>
<!-- 15&#45;&gt;16 -->
<g id="edge40" class="edge">
<title>15&#45;&gt;16</title>
<path fill="none" stroke="#cccccc" d="M249.3931,-638.8813C241.8694,-633.717 232.657,-627.3936 224.5843,-621.8525"/>
<polygon fill="#cccccc" stroke="#cccccc" points="225.3473,-620.2537 220.2346,-618.8669 223.3666,-623.1393 225.3473,-620.2537"/>
</g>
<!-- 15&#45;&gt;17 -->
<g id="edge62" class="edge">
<title>15&#45;&gt;17</title>
<path fill="none" stroke="#cccccc" d="M259.5455,-631.7879C253.7206,-610.7439 243.8928,-575.2385 237.5027,-552.1525"/>
<polygon fill="#cccccc" stroke="#cccccc" points="239.1356,-551.4912 236.1151,-547.1393 235.7624,-552.4249 239.1356,-551.4912"/>
</g>
<!-- 16&#45;&gt;17 -->
<g id="edge63" class="edge">
<title>16&#45;&gt;17</title>
<path fill="none" stroke="#cccccc" d="M210.7668,-591.3842C214.624,-579.8098 219.7587,-564.402 223.9289,-551.8885"/>
<polygon fill="#cccccc" stroke="#cccccc" points="225.6127,-552.3708 225.5334,-547.074 222.2923,-551.2642 225.6127,-552.3708"/>
</g>
<!-- 17&#45;&gt;34 -->
<g id="edge24" class="edge">
<title>17&#45;&gt;34</title>
<path fill="none" stroke="#cccccc" d="M244.1301,-517.0583C273.9262,-487.5561 347.8262,-414.3849 381.3157,-381.2256"/>
<polygon fill="#cccccc" stroke="#cccccc" points="382.872,-382.1473 385.1938,-377.3858 380.4094,-379.6602 382.872,-382.1473"/>
</g>
<!-- 17&#45;&gt;40 -->
<g id="edge13" class="edge">
<title>17&#45;&gt;40</title>
<path fill="none" stroke="#cccccc" d="M219.4266,-516.0842C204.3394,-498.7153 178.2612,-468.6932 161.5556,-449.4611"/>
<polygon fill="#cccccc" stroke="#cccccc" points="162.535,-447.92 157.9349,-445.2928 159.8926,-450.2152 162.535,-447.92"/>
</g>
<!-- 18&#45;&gt;27 -->
<g id="edge48" class="edge">
<title>18&#45;&gt;27</title>
<path fill="none" stroke="#cccccc" d="M167.698,-225.3387C189.9373,-233.1212 228.7967,-246.7197 253.3274,-255.304"/>
<polygon fill="#cccccc" stroke="#cccccc" points="253.0359,-257.056 258.3334,-257.0558 254.192,-253.7524 253.0359,-257.056"/>
</g>
<!-- 19&#45;&gt;22 -->
<g id="edge34" class="edge">
<title>19&#45;&gt;22</title>
<path fill="none" stroke="#cccccc" d="M673.6588,-325.6726C657.2269,-333.7077 631.9279,-346.079 614.0457,-354.8234"/>
<polygon fill="#cccccc" stroke="#cccccc" points="612.9351,-353.4184 609.2122,-357.187 614.4727,-356.5626 612.9351,-353.4184"/>
</g>
<!-- 20&#45;&gt;34 -->
<g id="edge15" class="edge">
<title>20&#45;&gt;34</title>
<path fill="none" stroke="#cccccc" d="M400.8314,-241.9365C400.3072,-267.2403 399.3545,-313.2222 398.7774,-341.0774"/>
<polygon fill="#cccccc" stroke="#cccccc" points="397.0213,-341.3601 398.6673,-346.3953 400.5205,-341.4326 397.0213,-341.3601"/>
</g>
<!-- 20&#45;&gt;42 -->
<g id="edge27" class="edge">
<title>20&#45;&gt;42</title>
<path fill="none" stroke="#cccccc" d="M389.178,-210.187C384.3118,-204.6604 378.6335,-198.2115 373.4676,-192.3445"/>
<polygon fill="#cccccc" stroke="#cccccc" points="374.6069,-190.9903 369.9893,-188.3941 371.9801,-193.3033 374.6069,-190.9903"/>
</g>
<!-- 21&#45;&gt;27 -->
<g id="edge46" class="edge">
<title>21&#45;&gt;27</title>
<path fill="none" stroke="#cccccc" d="M320.6401,-276.6195C313.6138,-274.5106 305.4149,-272.0498 297.9558,-269.811"/>
<polygon fill="#cccccc" stroke="#cccccc" points="298.2256,-268.0649 292.9335,-268.3036 297.2194,-271.4171 298.2256,-268.0649"/>
</g>
<!-- 21&#45;&gt;34 -->
<g id="edge20" class="edge">
<title>21&#45;&gt;34</title>
<path fill="none" stroke="#cccccc" d="M348.7856,-296.5963C358.7301,-310.2187 373.5512,-330.5212 384.3849,-345.3616"/>
<polygon fill="#cccccc" stroke="#cccccc" points="383.2477,-346.7719 387.6093,-349.7785 386.0746,-344.7082 383.2477,-346.7719"/>
</g>
<!-- 22&#45;&gt;34 -->
<g id="edge19" class="edge">
<title>22&#45;&gt;34</title>
<path fill="none" stroke="#cccccc" d="M574.6572,-365.0613C539.0568,-364.9308 460.5891,-364.6432 421.4454,-364.4997"/>
<polygon fill="#cccccc" stroke="#cccccc" points="421.4247,-362.7497 416.4183,-364.4812 421.4118,-366.2497 421.4247,-362.7497"/>
</g>
<!-- 23&#45;&gt;40 -->
<g id="edge5" class="edge">
<title>23&#45;&gt;40</title>
<path fill="none" stroke="#cccccc" d="M37.3705,-471.2814C59.8132,-463.0369 99.4609,-448.4719 124.1135,-439.4154"/>
<polygon fill="#cccccc" stroke="#cccccc" points="124.7447,-441.048 128.8346,-437.6811 123.5378,-437.7626 124.7447,-441.048"/>
</g>
<!-- 24&#45;&gt;32 -->
<g id="edge52" class="edge">
<title>24&#45;&gt;32</title>
<path fill="none" stroke="#cccccc" d="M456.6567,-561.9692C445.4141,-546.8718 427.8202,-523.2454 415.5801,-506.8084"/>
<polygon fill="#cccccc" stroke="#cccccc" points="416.9806,-505.759 412.5907,-502.7939 414.1734,-507.8494 416.9806,-505.759"/>
</g>
<!-- 25&#45;&gt;31 -->
<g id="edge35" class="edge">
<title>25&#45;&gt;31</title>
<path fill="none" stroke="#cccccc" d="M460.8082,-710.9034C456.1762,-695.7665 449.4642,-673.8327 444.4482,-657.4409"/>
<polygon fill="#cccccc" stroke="#cccccc" points="446.0866,-656.8144 442.9501,-652.5454 442.7398,-657.8386 446.0866,-656.8144"/>
</g>
<!-- 26&#45;&gt;34 -->
<g id="edge26" class="edge">
<title>26&#45;&gt;34</title>
<path fill="none" stroke="#cccccc" d="M445.3989,-274.7247C435.7346,-293.126 419.8682,-323.3364 409.2542,-343.5458"/>
<polygon fill="#cccccc" stroke="#cccccc" points="407.5843,-342.9619 406.8087,-348.2023 410.6829,-344.5893 407.5843,-342.9619"/>
</g>
<!-- 27&#45;&gt;34 -->
<g id="edge21" class="edge">
<title>27&#45;&gt;34</title>
<path fill="none" stroke="#cccccc" d="M289.7269,-274.7387C312.0891,-293.2098 355.725,-329.253 380.3206,-349.5688"/>
<polygon fill="#cccccc" stroke="#cccccc" points="379.4208,-351.0954 384.3902,-352.9304 381.6497,-348.3969 379.4208,-351.0954"/>
</g>
<!-- 28&#45;&gt;32 -->
<g id="edge54" class="edge">
<title>28&#45;&gt;32</title>
<path fill="none" stroke="#cccccc" d="M439.8194,-455.7155C433.633,-460.9845 426.2771,-467.2494 419.6854,-472.8636"/>
<polygon fill="#cccccc" stroke="#cccccc" points="418.3689,-471.6861 415.6971,-476.2604 420.6383,-474.3506 418.3689,-471.6861"/>
</g>
<!-- 28&#45;&gt;34 -->
<g id="edge25" class="edge">
<title>28&#45;&gt;34</title>
<path fill="none" stroke="#cccccc" d="M443.3372,-428.8942C434.3485,-416.0268 421.3234,-397.3814 411.5893,-383.4471"/>
<polygon fill="#cccccc" stroke="#cccccc" points="412.9802,-382.3823 408.6822,-379.2856 410.111,-384.3867 412.9802,-382.3823"/>
</g>
<!-- 29&#45;&gt;34 -->
<g id="edge17" class="edge">
<title>29&#45;&gt;34</title>
<path fill="none" stroke="#cccccc" d="M491.6783,-387.7073C472.538,-382.9332 442.1077,-375.3431 421.2181,-370.1327"/>
<polygon fill="#cccccc" stroke="#cccccc" points="421.4004,-368.3746 416.1255,-368.8624 420.5533,-371.7706 421.4004,-368.3746"/>
</g>
<!-- 30&#45;&gt;32 -->
<g id="edge49" class="edge">
<title>30&#45;&gt;32</title>
<path fill="none" stroke="#cccccc" d="M506.5341,-531.8689C484.9401,-522.8686 447.2084,-507.1421 423.3895,-497.2145"/>
<polygon fill="#cccccc" stroke="#cccccc" points="423.8172,-495.4969 418.5288,-495.1886 422.4707,-498.7275 423.8172,-495.4969"/>
</g>
<!-- 31&#45;&gt;32 -->
<g id="edge50" class="edge">
<title>31&#45;&gt;32</title>
<path fill="none" stroke="#cccccc" d="M433.2676,-617.3353C426.7464,-590.6491 414.4058,-540.1485 407.2399,-510.8242"/>
<polygon fill="#cccccc" stroke="#cccccc" points="408.9373,-510.3978 406.0504,-505.9562 405.5374,-511.2287 408.9373,-510.3978"/>
</g>
<!-- 32&#45;&gt;34 -->
<g id="edge23" class="edge">
<title>32&#45;&gt;34</title>
<path fill="none" stroke="#cccccc" d="M401.2096,-470.1807C400.6082,-448.3661 399.5936,-411.5606 398.9339,-387.6294"/>
<polygon fill="#cccccc" stroke="#cccccc" points="400.6778,-387.3824 398.7906,-382.4326 397.1792,-387.4789 400.6778,-387.3824"/>
</g>
<!-- 33&#45;&gt;34 -->
<g id="edge16" class="edge">
<title>33&#45;&gt;34</title>
<path fill="none" stroke="#cccccc" d="M498.8011,-274.3938C478.054,-292.9763 438.3937,-328.4987 415.5876,-348.9255"/>
<polygon fill="#cccccc" stroke="#cccccc" points="414.3626,-347.6733 411.8056,-352.3128 416.6977,-350.2805 414.3626,-347.6733"/>
</g>
<!-- 35&#45;&gt;53 -->
<g id="edge30" class="edge">
<title>35&#45;&gt;53</title>
<path fill="none" stroke="#cccccc" d="M536.4643,-78.1604C520.4884,-79.501 497.0617,-81.4669 479.6332,-82.9295"/>
<polygon fill="#cccccc" stroke="#cccccc" points="479.268,-81.2039 474.4319,-83.366 479.5607,-84.6916 479.268,-81.2039"/>
</g>
<!-- 37&#45;&gt;39 -->
<g id="edge67" class="edge">
<title>37&#45;&gt;39</title>
<path fill="none" stroke="#cccccc" d="M142.5576,-371.7521C150.7075,-370.2438 160.4795,-368.4353 169.1975,-366.8219"/>
<polygon fill="#cccccc" stroke="#cccccc" points="169.8675,-368.4777 174.4655,-365.847 169.2305,-365.0361 169.8675,-368.4777"/>
</g>
<!-- 38&#45;&gt;40 -->
<g id="edge9" class="edge">
<title>38&#45;&gt;40</title>
<path fill="none" stroke="#cccccc" d="M35.7816,-411.42C58.4634,-415.5398 97.7382,-422.6734 122.7341,-427.2136"/>
<polygon fill="#cccccc" stroke="#cccccc" points="122.6079,-428.9692 127.8401,-428.141 123.2334,-425.5255 122.6079,-428.9692"/>
</g>
<!-- 39&#45;&gt;40 -->
<g id="edge14" class="edge">
<title>39&#45;&gt;40</title>
<path fill="none" stroke="#cccccc" d="M182.2381,-377.4887C175.4571,-387.5477 166.4458,-400.9151 159.0914,-411.8247"/>
<polygon fill="#cccccc" stroke="#cccccc" points="157.6032,-410.9016 156.2593,-416.0258 160.5053,-412.8581 157.6032,-410.9016"/>
</g>
<!-- 42&#45;&gt;53 -->
<g id="edge29" class="edge">
<title>42&#45;&gt;53</title>
<path fill="none" stroke="#cccccc" d="M371.6736,-162.3053C389.1078,-146.3357 419.3145,-118.6665 438.4958,-101.0966"/>
<polygon fill="#cccccc" stroke="#cccccc" points="440.1434,-101.9607 442.6483,-97.2929 437.7792,-99.3797 440.1434,-101.9607"/>
</g>
<!-- 45&#45;&gt;53 -->
<g id="edge31" class="edge">
<title>45&#45;&gt;53</title>
<path fill="none" stroke="#cccccc" d="M480.5888,-34.5365C476.2698,-43.4477 470.8975,-54.5323 466.2934,-64.0317"/>
<polygon fill="#cccccc" stroke="#cccccc" points="464.7089,-63.2886 464.1029,-68.5513 467.8585,-64.8152 464.7089,-63.2886"/>
</g>
<!-- 52&#45;&gt;54 -->
<g id="edge1" class="edge">
<title>52&#45;&gt;54</title>
<path fill="none" stroke="#cccccc" d="M361.6462,-891.9727C354.0498,-891.6103 345.1163,-891.1842 337.0201,-890.798"/>
<polygon fill="#cccccc" stroke="#cccccc" points="336.6533,-889.0286 331.5756,-890.5382 336.4865,-892.5246 336.6533,-889.0286"/>
</g>
<!-- 54&#45;&gt;55 -->
<g id="edge37" class="edge">
<title>54&#45;&gt;55</title>
<path fill="none" stroke="#cccccc" d="M295.3098,-887.9709C286.8741,-887.1799 276.7435,-886.23 267.7406,-885.3859"/>
<polygon fill="#cccccc" stroke="#cccccc" points="267.733,-883.6276 262.5914,-884.9031 267.4062,-887.1123 267.733,-883.6276"/>
</g>
<!-- 1 -->
<g id="node1" class="node">
<title>1</title>
<ellipse fill="#d95f02" stroke="#d95f02" cx="290.1718" cy="-341.3221" rx="18" ry="18"/>
<text text-anchor="middle" x="290.1718" y="-344.3221" font-family="Helvetica,sans-Serif" font-size="10.00" fill="#000000">Rcpp</text>
<text text-anchor="middle" x="290.1718" y="-332.3221" font-family="Helvetica,sans-Serif" font-size="10.00" fill="#000000">6337</text>
</g>
<!-- 2 -->
<g id="node2" class="node">
<title>2</title>
<ellipse fill="#d95f02" stroke="#d95f02" cx="768.6821" cy="-345.9961" rx="18" ry="18"/>
<text text-anchor="middle" x="768.6821" y="-348.9961" font-family="Helvetica,sans-Serif" font-size="10.00" fill="#000000">lattice</text>
<text text-anchor="middle" x="768.6821" y="-336.9961" font-family="Helvetica,sans-Serif" font-size="10.00" fill="#000000">6045</text>
</g>
<!-- 3 -->
<g id="node3" class="node">
<title>3</title>
<ellipse fill="#e7298a" stroke="#e7298a" cx="706.0207" cy="-413.5807" rx="18" ry="18"/>
<text text-anchor="middle" x="706.0207" y="-416.5807" font-family="Helvetica,sans-Serif" font-size="10.00" fill="#000000">Matrix</text>
<text text-anchor="middle" x="706.0207" y="-404.5807" font-family="Helvetica,sans-Serif" font-size="10.00" fill="#000000">5012</text>
</g>
<!-- 4 -->
<g id="node4" class="node">
<title>4</title>
<ellipse fill="#d95f02" stroke="#d95f02" cx="80.9351" cy="-312.1833" rx="18" ry="18"/>
<text text-anchor="middle" x="80.9351" y="-315.1833" font-family="Helvetica,sans-Serif" font-size="10.00" fill="#000000">magrittr</text>
<text text-anchor="middle" x="80.9351" y="-303.1833" font-family="Helvetica,sans-Serif" font-size="10.00" fill="#000000">4901</text>
</g>
<!-- 5 -->
<g id="node5" class="node">
<title>5</title>
<ellipse fill="#d95f02" stroke="#d95f02" cx="503.2375" cy="-323.5046" rx="18" ry="18"/>
<text text-anchor="middle" x="503.2375" y="-326.5046" font-family="Helvetica,sans-Serif" font-size="10.00" fill="#000000">MASS</text>
<text text-anchor="middle" x="503.2375" y="-314.5046" font-family="Helvetica,sans-Serif" font-size="10.00" fill="#000000">4617</text>
</g>
<!-- 6 -->
<g id="node6" class="node">
<title>6</title>
<ellipse fill="#d95f02" stroke="#d95f02" cx="285.7127" cy="-481.7996" rx="18" ry="18"/>
<text text-anchor="middle" x="285.7127" y="-484.7996" font-family="Helvetica,sans-Serif" font-size="10.00" fill="#000000">R6</text>
<text text-anchor="middle" x="285.7127" y="-472.7996" font-family="Helvetica,sans-Serif" font-size="10.00" fill="#000000">4300</text>
</g>
<!-- 7 -->
<g id="node7" class="node">
<title>7</title>
<ellipse fill="#d95f02" stroke="#d95f02" cx="232.1789" cy="-446.3178" rx="18" ry="18"/>
<text text-anchor="middle" x="232.1789" y="-449.3178" font-family="Helvetica,sans-Serif" font-size="10.00" fill="#000000">rlang</text>
<text text-anchor="middle" x="232.1789" y="-437.3178" font-family="Helvetica,sans-Serif" font-size="10.00" fill="#000000">4017</text>
</g>
<!-- 8 -->
<g id="node8" class="node">
<title>8</title>
<ellipse fill="#d95f02" stroke="#d95f02" cx="135.0589" cy="-519.3395" rx="18" ry="18"/>
<text text-anchor="middle" x="135.0589" y="-522.3395" font-family="Helvetica,sans-Serif" font-size="10.00" fill="#000000">pkgconfig</text>
<text text-anchor="middle" x="135.0589" y="-510.3395" font-family="Helvetica,sans-Serif" font-size="10.00" fill="#000000">4005</text>
</g>
<!-- 9 -->
<g id="node9" class="node">
<title>9</title>
<ellipse fill="#d95f02" stroke="#d95f02" cx="136.7227" cy="-302.2334" rx="18" ry="18"/>
<text text-anchor="middle" x="136.7227" y="-305.2334" font-family="Helvetica,sans-Serif" font-size="10.00" fill="#000000">glue</text>
<text text-anchor="middle" x="136.7227" y="-293.2334" font-family="Helvetica,sans-Serif" font-size="10.00" fill="#000000">3971</text>
</g>
<!-- 10 -->
<g id="node10" class="node">
<title>10</title>
<ellipse fill="#d95f02" stroke="#d95f02" cx="173.4224" cy="-650.8218" rx="18" ry="18"/>
<text text-anchor="middle" x="173.4224" y="-653.8218" font-family="Helvetica,sans-Serif" font-size="10.00" fill="#000000">crayon</text>
<text text-anchor="middle" x="173.4224" y="-641.8218" font-family="Helvetica,sans-Serif" font-size="10.00" fill="#000000">3945</text>
</g>
<!-- 11 -->
<g id="node11" class="node">
<title>11</title>
<ellipse fill="#d95f02" stroke="#d95f02" cx="63.9805" cy="-548.5213" rx="18" ry="18"/>
<text text-anchor="middle" x="63.9805" y="-551.5213" font-family="Helvetica,sans-Serif" font-size="10.00" fill="#000000">assertthat</text>
<text text-anchor="middle" x="63.9805" y="-539.5213" font-family="Helvetica,sans-Serif" font-size="10.00" fill="#000000">3880</text>
</g>
<!-- 12 -->
<g id="node12" class="node">
<title>12</title>
<ellipse fill="#e7298a" stroke="#e7298a" cx="129.3541" cy="-610.2736" rx="18" ry="18"/>
<text text-anchor="middle" x="129.3541" y="-613.2736" font-family="Helvetica,sans-Serif" font-size="10.00" fill="#000000">cli</text>
<text text-anchor="middle" x="129.3541" y="-601.2736" font-family="Helvetica,sans-Serif" font-size="10.00" fill="#000000">3718</text>
</g>
<!-- 13 -->
<g id="node13" class="node">
<title>13</title>
<ellipse fill="#d95f02" stroke="#d95f02" cx="135.1305" cy="-126.9363" rx="18" ry="18"/>
<text text-anchor="middle" x="135.1305" y="-129.9363" font-family="Helvetica,sans-Serif" font-size="10.00" fill="#000000">stringi</text>
<text text-anchor="middle" x="135.1305" y="-117.9363" font-family="Helvetica,sans-Serif" font-size="10.00" fill="#000000">3714</text>
</g>
<!-- 14 -->
<g id="node14" class="node">
<title>14</title>
<ellipse fill="#d95f02" stroke="#d95f02" cx="170.5233" cy="-734.8278" rx="18" ry="18"/>
<text text-anchor="middle" x="170.5233" y="-737.8278" font-family="Helvetica,sans-Serif" font-size="10.00" fill="#000000">utf8</text>
<text text-anchor="middle" x="170.5233" y="-725.8278" font-family="Helvetica,sans-Serif" font-size="10.00" fill="#000000">3613</text>
</g>
<!-- 15 -->
<g id="node15" class="node">
<title>15</title>
<ellipse fill="#d95f02" stroke="#d95f02" cx="264.3508" cy="-649.1482" rx="18" ry="18"/>
<text text-anchor="middle" x="264.3508" y="-652.1482" font-family="Helvetica,sans-Serif" font-size="10.00" fill="#000000">fansi</text>
<text text-anchor="middle" x="264.3508" y="-640.1482" font-family="Helvetica,sans-Serif" font-size="10.00" fill="#000000">3612</text>
</g>
<!-- 16 -->
<g id="node16" class="node">
<title>16</title>
<ellipse fill="#e7298a" stroke="#e7298a" cx="205.0756" cy="-608.4618" rx="18" ry="18"/>
<text text-anchor="middle" x="205.0756" y="-611.4618" font-family="Helvetica,sans-Serif" font-size="10.00" fill="#000000">pillar</text>
<text text-anchor="middle" x="205.0756" y="-599.4618" font-family="Helvetica,sans-Serif" font-size="10.00" fill="#000000">3610</text>
</g>
<!-- 17 -->
<g id="node17" class="node">
<title>17</title>
<ellipse fill="#e7298a" stroke="#e7298a" cx="231.304" cy="-529.7579" rx="18" ry="18"/>
<text text-anchor="middle" x="231.304" y="-532.7579" font-family="Helvetica,sans-Serif" font-size="10.00" fill="#000000">tibble</text>
<text text-anchor="middle" x="231.304" y="-520.7579" font-family="Helvetica,sans-Serif" font-size="10.00" fill="#000000">3608</text>
</g>
<!-- 18 -->
<g id="node18" class="node">
<title>18</title>
<ellipse fill="#e7298a" stroke="#e7298a" cx="150.5668" cy="-219.3438" rx="18" ry="18"/>
<text text-anchor="middle" x="150.5668" y="-222.3438" font-family="Helvetica,sans-Serif" font-size="10.00" fill="#000000">stringr</text>
<text text-anchor="middle" x="150.5668" y="-210.3438" font-family="Helvetica,sans-Serif" font-size="10.00" fill="#000000">3535</text>
</g>
<!-- 19 -->
<g id="node19" class="node">
<title>19</title>
<ellipse fill="#e7298a" stroke="#e7298a" cx="690.1424" cy="-317.6121" rx="18" ry="18"/>
<text text-anchor="middle" x="690.1424" y="-320.6121" font-family="Helvetica,sans-Serif" font-size="10.00" fill="#000000">nlme</text>
<text text-anchor="middle" x="690.1424" y="-308.6121" font-family="Helvetica,sans-Serif" font-size="10.00" fill="#000000">3511</text>
</g>
<!-- 20 -->
<g id="node20" class="node">
<title>20</title>
<ellipse fill="#d95f02" stroke="#d95f02" cx="401.2062" cy="-223.8476" rx="18" ry="18"/>
<text text-anchor="middle" x="401.2062" y="-226.8476" font-family="Helvetica,sans-Serif" font-size="10.00" fill="#000000">digest</text>
<text text-anchor="middle" x="401.2062" y="-214.8476" font-family="Helvetica,sans-Serif" font-size="10.00" fill="#000000">3387</text>
</g>
<!-- 21 -->
<g id="node21" class="node">
<title>21</title>
<ellipse fill="#e7298a" stroke="#e7298a" cx="338.0076" cy="-281.8322" rx="18" ry="18"/>
<text text-anchor="middle" x="338.0076" y="-284.8322" font-family="Helvetica,sans-Serif" font-size="10.00" fill="#000000">plyr</text>
<text text-anchor="middle" x="338.0076" y="-272.8322" font-family="Helvetica,sans-Serif" font-size="10.00" fill="#000000">3108</text>
</g>
<!-- 22 -->
<g id="node22" class="node">
<title>22</title>
<ellipse fill="#e7298a" stroke="#e7298a" cx="592.972" cy="-365.1285" rx="18" ry="18"/>
<text text-anchor="middle" x="592.972" y="-368.1285" font-family="Helvetica,sans-Serif" font-size="10.00" fill="#000000">mgcv</text>
<text text-anchor="middle" x="592.972" y="-356.1285" font-family="Helvetica,sans-Serif" font-size="10.00" fill="#000000">2976</text>
</g>
<!-- 23 -->
<g id="node23" class="node">
<title>23</title>
<ellipse fill="#d95f02" stroke="#d95f02" cx="20.4547" cy="-477.4956" rx="18" ry="18"/>
<text text-anchor="middle" x="20.4547" y="-480.4956" font-family="Helvetica,sans-Serif" font-size="10.00" fill="#000000">BH</text>
<text text-anchor="middle" x="20.4547" y="-468.4956" font-family="Helvetica,sans-Serif" font-size="10.00" fill="#000000">2832</text>
</g>
<!-- 24 -->
<g id="node24" class="node">
<title>24</title>
<ellipse fill="#d95f02" stroke="#d95f02" cx="467.5256" cy="-576.5647" rx="18" ry="18"/>
<text text-anchor="middle" x="467.5256" y="-579.5647" font-family="Helvetica,sans-Serif" font-size="10.00" fill="#000000">RColorBrewer</text>
<text text-anchor="middle" x="467.5256" y="-567.5647" font-family="Helvetica,sans-Serif" font-size="10.00" fill="#000000">2754</text>
</g>
<!-- 25 -->
<g id="node25" class="node">
<title>25</title>
<ellipse fill="#d95f02" stroke="#d95f02" cx="466.1855" cy="-728.4757" rx="18" ry="18"/>
<text text-anchor="middle" x="466.1855" y="-731.4757" font-family="Helvetica,sans-Serif" font-size="10.00" fill="#000000">colorspace</text>
<text text-anchor="middle" x="466.1855" y="-719.4757" font-family="Helvetica,sans-Serif" font-size="10.00" fill="#000000">2709</text>
</g>
<!-- 26 -->
<g id="node26" class="node">
<title>26</title>
<ellipse fill="#d95f02" stroke="#d95f02" cx="453.8343" cy="-258.6633" rx="18" ry="18"/>
<text text-anchor="middle" x="453.8343" y="-261.6633" font-family="Helvetica,sans-Serif" font-size="10.00" fill="#000000">withr</text>
<text text-anchor="middle" x="453.8343" y="-249.6633" font-family="Helvetica,sans-Serif" font-size="10.00" fill="#000000">2689</text>
</g>
<!-- 27 -->
<g id="node27" class="node">
<title>27</title>
<ellipse fill="#e7298a" stroke="#e7298a" cx="275.6592" cy="-263.1188" rx="18" ry="18"/>
<text text-anchor="middle" x="275.6592" y="-266.1188" font-family="Helvetica,sans-Serif" font-size="10.00" fill="#000000">reshape2</text>
<text text-anchor="middle" x="275.6592" y="-254.1188" font-family="Helvetica,sans-Serif" font-size="10.00" fill="#000000">2681</text>
</g>
<!-- 28 -->
<g id="node28" class="node">
<title>28</title>
<ellipse fill="#d95f02" stroke="#d95f02" cx="453.7723" cy="-443.8319" rx="18" ry="18"/>
<text text-anchor="middle" x="453.7723" y="-446.8319" font-family="Helvetica,sans-Serif" font-size="10.00" fill="#000000">viridisLite</text>
<text text-anchor="middle" x="453.7723" y="-434.8319" font-family="Helvetica,sans-Serif" font-size="10.00" fill="#000000">2595</text>
</g>
<!-- 29 -->
<g id="node29" class="node">
<title>29</title>
<ellipse fill="#d95f02" stroke="#d95f02" cx="509.5542" cy="-392.166" rx="18" ry="18"/>
<text text-anchor="middle" x="509.5542" y="-395.166" font-family="Helvetica,sans-Serif" font-size="10.00" fill="#000000">lazyeval</text>
<text text-anchor="middle" x="509.5542" y="-383.166" font-family="Helvetica,sans-Serif" font-size="10.00" fill="#000000">2584</text>
</g>
<!-- 30 -->
<g id="node30" class="node">
<title>30</title>
<ellipse fill="#d95f02" stroke="#d95f02" cx="523.1683" cy="-538.8019" rx="18" ry="18"/>
<text text-anchor="middle" x="523.1683" y="-541.8019" font-family="Helvetica,sans-Serif" font-size="10.00" fill="#000000">labeling</text>
<text text-anchor="middle" x="523.1683" y="-529.8019" font-family="Helvetica,sans-Serif" font-size="10.00" fill="#000000">2580</text>
</g>
<!-- 31 -->
<g id="node31" class="node">
<title>31</title>
<ellipse fill="#e7298a" stroke="#e7298a" cx="437.5969" cy="-635.0519" rx="18" ry="18"/>
<text text-anchor="middle" x="437.5969" y="-638.0519" font-family="Helvetica,sans-Serif" font-size="10.00" fill="#000000">munsell</text>
<text text-anchor="middle" x="437.5969" y="-626.0519" font-family="Helvetica,sans-Serif" font-size="10.00" fill="#000000">2579</text>
</g>
<!-- 32 -->
<g id="node32" class="node">
<title>32</title>
<ellipse fill="#e7298a" stroke="#e7298a" cx="401.7057" cy="-488.1768" rx="18" ry="18"/>
<text text-anchor="middle" x="401.7057" y="-491.1768" font-family="Helvetica,sans-Serif" font-size="10.00" fill="#000000">scales</text>
<text text-anchor="middle" x="401.7057" y="-479.1768" font-family="Helvetica,sans-Serif" font-size="10.00" fill="#000000">2578</text>
</g>
<!-- 33 -->
<g id="node33" class="node">
<title>33</title>
<ellipse fill="#d95f02" stroke="#d95f02" cx="512.3304" cy="-262.2761" rx="18" ry="18"/>
<text text-anchor="middle" x="512.3304" y="-265.2761" font-family="Helvetica,sans-Serif" font-size="10.00" fill="#000000">gtable</text>
<text text-anchor="middle" x="512.3304" y="-253.2761" font-family="Helvetica,sans-Serif" font-size="10.00" fill="#000000">2554</text>
</g>
<!-- 34 -->
<g id="node34" class="node">
<title>34</title>
<ellipse fill="#7570b3" stroke="#7570b3" cx="398.2939" cy="-364.4148" rx="18" ry="18"/>
<text text-anchor="middle" x="398.2939" y="-367.4148" font-family="Helvetica,sans-Serif" font-size="10.00" fill="#000000">ggplot2</text>
<text text-anchor="middle" x="398.2939" y="-355.4148" font-family="Helvetica,sans-Serif" font-size="10.00" fill="#000000">2507</text>
</g>
<!-- 35 -->
<g id="node35" class="node">
<title>35</title>
<ellipse fill="#d95f02" stroke="#d95f02" cx="554.4971" cy="-76.6471" rx="18" ry="18"/>
<text text-anchor="middle" x="554.4971" y="-79.6471" font-family="Helvetica,sans-Serif" font-size="10.00" fill="#000000">jsonlite</text>
<text text-anchor="middle" x="554.4971" y="-67.6471" font-family="Helvetica,sans-Serif" font-size="10.00" fill="#000000">2399</text>
</g>
<!-- 36 -->
<g id="node36" class="node">
<title>36</title>
<ellipse fill="#1b9e77" stroke="#1b9e77" cx="781.9702" cy="-672.4899" rx="18" ry="18"/>
<text text-anchor="middle" x="781.9702" y="-675.4899" font-family="Helvetica,sans-Serif" font-size="10.00" fill="#000000">mime</text>
<text text-anchor="middle" x="781.9702" y="-663.4899" font-family="Helvetica,sans-Serif" font-size="10.00" fill="#000000">2142</text>
</g>
<!-- 37 -->
<g id="node37" class="node">
<title>37</title>
<ellipse fill="#e7298a" stroke="#e7298a" cx="124.8264" cy="-375.0336" rx="18" ry="18"/>
<text text-anchor="middle" x="124.8264" y="-378.0336" font-family="Helvetica,sans-Serif" font-size="10.00" fill="#000000">purrr</text>
<text text-anchor="middle" x="124.8264" y="-366.0336" font-family="Helvetica,sans-Serif" font-size="10.00" fill="#000000">1820</text>
</g>
<!-- 38 -->
<g id="node38" class="node">
<title>38</title>
<ellipse fill="#d95f02" stroke="#d95f02" cx="18" cy="-408.1902" rx="18" ry="18"/>
<text text-anchor="middle" x="18" y="-411.1902" font-family="Helvetica,sans-Serif" font-size="10.00" fill="#000000">plogr</text>
<text text-anchor="middle" x="18" y="-399.1902" font-family="Helvetica,sans-Serif" font-size="10.00" fill="#000000">1745</text>
</g>
<!-- 39 -->
<g id="node39" class="node">
<title>39</title>
<ellipse fill="#e7298a" stroke="#e7298a" cx="192.3126" cy="-362.544" rx="18" ry="18"/>
<text text-anchor="middle" x="192.3126" y="-365.544" font-family="Helvetica,sans-Serif" font-size="10.00" fill="#000000">tidyselect</text>
<text text-anchor="middle" x="192.3126" y="-353.544" font-family="Helvetica,sans-Serif" font-size="10.00" fill="#000000">1684</text>
</g>
<!-- 40 -->
<g id="node40" class="node">
<title>40</title>
<ellipse fill="#7570b3" stroke="#7570b3" cx="145.883" cy="-431.4182" rx="18" ry="18"/>
<text text-anchor="middle" x="145.883" y="-434.4182" font-family="Helvetica,sans-Serif" font-size="10.00" fill="#000000">dplyr</text>
<text text-anchor="middle" x="145.883" y="-422.4182" font-family="Helvetica,sans-Serif" font-size="10.00" fill="#000000">1671</text>
</g>
<!-- 41 -->
<g id="node41" class="node">
<title>41</title>
<ellipse fill="#1b9e77" stroke="#1b9e77" cx="560.9372" cy="-810.4051" rx="18" ry="18"/>
<text text-anchor="middle" x="560.9372" y="-813.4051" font-family="Helvetica,sans-Serif" font-size="10.00" fill="#000000">curl</text>
<text text-anchor="middle" x="560.9372" y="-801.4051" font-family="Helvetica,sans-Serif" font-size="10.00" fill="#000000">1647</text>
</g>
<!-- 42 -->
<g id="node42" class="node">
<title>42</title>
<ellipse fill="#e7298a" stroke="#e7298a" cx="358.0256" cy="-174.8068" rx="18" ry="18"/>
<text text-anchor="middle" x="358.0256" y="-177.8068" font-family="Helvetica,sans-Serif" font-size="10.00" fill="#000000">htmltools</text>
<text text-anchor="middle" x="358.0256" y="-165.8068" font-family="Helvetica,sans-Serif" font-size="10.00" fill="#000000">1464</text>
</g>
<!-- 43 -->
<g id="node43" class="node">
<title>43</title>
<ellipse fill="#1b9e77" stroke="#1b9e77" cx="492.922" cy="-901.6062" rx="18" ry="18"/>
<text text-anchor="middle" x="492.922" y="-904.6062" font-family="Helvetica,sans-Serif" font-size="10.00" fill="#000000">data.table</text>
<text text-anchor="middle" x="492.922" y="-892.6062" font-family="Helvetica,sans-Serif" font-size="10.00" fill="#000000">1418</text>
</g>
<!-- 44 -->
<g id="node44" class="node">
<title>44</title>
<ellipse fill="#1b9e77" stroke="#1b9e77" cx="830.9766" cy="-581.2023" rx="18" ry="18"/>
<text text-anchor="middle" x="830.9766" y="-584.2023" font-family="Helvetica,sans-Serif" font-size="10.00" fill="#000000">codetools</text>
<text text-anchor="middle" x="830.9766" y="-572.2023" font-family="Helvetica,sans-Serif" font-size="10.00" fill="#000000">1383</text>
</g>
<!-- 45 -->
<g id="node45" class="node">
<title>45</title>
<ellipse fill="#d95f02" stroke="#d95f02" cx="488.6035" cy="-18" rx="18" ry="18"/>
<text text-anchor="middle" x="488.6035" y="-21" font-family="Helvetica,sans-Serif" font-size="10.00" fill="#000000">yaml</text>
<text text-anchor="middle" x="488.6035" y="-9" font-family="Helvetica,sans-Serif" font-size="10.00" fill="#000000">1366</text>
</g>
<!-- 46 -->
<g id="node46" class="node">
<title>46</title>
<ellipse fill="#7570b3" stroke="#7570b3" cx="751.9948" cy="-490.0656" rx="18" ry="18"/>
<text text-anchor="middle" x="751.9948" y="-493.0656" font-family="Helvetica,sans-Serif" font-size="10.00" fill="#000000">survival</text>
<text text-anchor="middle" x="751.9948" y="-481.0656" font-family="Helvetica,sans-Serif" font-size="10.00" fill="#000000">1340</text>
</g>
<!-- 47 -->
<g id="node47" class="node">
<title>47</title>
<ellipse fill="#1b9e77" stroke="#1b9e77" cx="631.8774" cy="-860.2987" rx="18" ry="18"/>
<text text-anchor="middle" x="631.8774" y="-863.2987" font-family="Helvetica,sans-Serif" font-size="10.00" fill="#000000">mvtnorm</text>
<text text-anchor="middle" x="631.8774" y="-851.2987" font-family="Helvetica,sans-Serif" font-size="10.00" fill="#000000">1279</text>
</g>
<!-- 48 -->
<g id="node48" class="node">
<title>48</title>
<ellipse fill="#7570b3" stroke="#7570b3" cx="836.1402" cy="-388.2199" rx="18" ry="18"/>
<text text-anchor="middle" x="836.1402" y="-391.2199" font-family="Helvetica,sans-Serif" font-size="10.00" fill="#000000">sp</text>
<text text-anchor="middle" x="836.1402" y="-379.2199" font-family="Helvetica,sans-Serif" font-size="10.00" fill="#000000">1074</text>
</g>
<!-- 49 -->
<g id="node49" class="node">
<title>49</title>
<ellipse fill="#7570b3" stroke="#7570b3" cx="792.026" cy="-265.9457" rx="18" ry="18"/>
<text text-anchor="middle" x="792.026" y="-268.9457" font-family="Helvetica,sans-Serif" font-size="10.00" fill="#000000">zoo</text>
<text text-anchor="middle" x="792.026" y="-256.9457" font-family="Helvetica,sans-Serif" font-size="10.00" fill="#000000">1060</text>
</g>
<!-- 50 -->
<g id="node50" class="node">
<title>50</title>
<ellipse fill="#1b9e77" stroke="#1b9e77" cx="677.5686" cy="-687.3997" rx="18" ry="18"/>
<text text-anchor="middle" x="677.5686" y="-690.3997" font-family="Helvetica,sans-Serif" font-size="10.00" fill="#000000">base64enc</text>
<text text-anchor="middle" x="677.5686" y="-678.3997" font-family="Helvetica,sans-Serif" font-size="10.00" fill="#000000">1042</text>
</g>
<!-- 51 -->
<g id="node51" class="node">
<title>51</title>
<ellipse fill="#1b9e77" stroke="#1b9e77" cx="720.2143" cy="-780.6298" rx="18" ry="18"/>
<text text-anchor="middle" x="720.2143" y="-783.6298" font-family="Helvetica,sans-Serif" font-size="10.00" fill="#000000">xtable</text>
<text text-anchor="middle" x="720.2143" y="-771.6298" font-family="Helvetica,sans-Serif" font-size="10.00" fill="#000000">1034</text>
</g>
<!-- 52 -->
<g id="node52" class="node">
<title>52</title>
<ellipse fill="#d95f02" stroke="#d95f02" cx="379.7524" cy="-892.8364" rx="18" ry="18"/>
<text text-anchor="middle" x="379.7524" y="-895.8364" font-family="Helvetica,sans-Serif" font-size="10.00" fill="#000000">sys</text>
<text text-anchor="middle" x="379.7524" y="-883.8364" font-family="Helvetica,sans-Serif" font-size="10.00" fill="#000000">1021</text>
</g>
<!-- 53 -->
<g id="node53" class="node">
<title>53</title>
<ellipse fill="#7570b3" stroke="#7570b3" cx="456.1804" cy="-84.8976" rx="18" ry="18"/>
<text text-anchor="middle" x="456.1804" y="-87.8976" font-family="Helvetica,sans-Serif" font-size="10.00" fill="#000000">htmlwidgets</text>
<text text-anchor="middle" x="456.1804" y="-75.8976" font-family="Helvetica,sans-Serif" font-size="10.00" fill="#000000">1018</text>
</g>
<!-- 54 -->
<g id="node54" class="node">
<title>54</title>
<ellipse fill="#e7298a" stroke="#e7298a" cx="313.4913" cy="-889.6756" rx="18" ry="18"/>
<text text-anchor="middle" x="313.4913" y="-892.6756" font-family="Helvetica,sans-Serif" font-size="10.00" fill="#000000">askpass</text>
<text text-anchor="middle" x="313.4913" y="-880.6756" font-family="Helvetica,sans-Serif" font-size="10.00" fill="#000000">1014</text>
</g>
<!-- 55 -->
<g id="node55" class="node">
<title>55</title>
<ellipse fill="#7570b3" stroke="#7570b3" cx="244.291" cy="-883.1872" rx="18" ry="18"/>
<text text-anchor="middle" x="244.291" y="-886.1872" font-family="Helvetica,sans-Serif" font-size="10.00" fill="#000000">openssl</text>
<text text-anchor="middle" x="244.291" y="-874.1872" font-family="Helvetica,sans-Serif" font-size="10.00" fill="#000000">1004</text>
</g>
</g>
</svg>

