<?xml version="1.0" encoding="UTF-8" standalone="no"?>
<!DOCTYPE svg PUBLIC "-//W3C//DTD SVG 1.1//EN"
 "http://www.w3.org/Graphics/SVG/1.1/DTD/svg11.dtd">
<!-- Generated by graphviz version 2.40.1 (20161225.0304)
 -->
<!-- Title: %0 Pages: 1 -->
<svg width="851pt" height="873pt"
 viewBox="0.00 0.00 850.92 873.49" xmlns="http://www.w3.org/2000/svg" xmlns:xlink="http://www.w3.org/1999/xlink">
<g id="graph0" class="graph" transform="scale(1 1) rotate(0) translate(4 869.4874)">
<title>%0</title>
<polygon fill="#ffffff" stroke="transparent" points="-4,4 -4,-869.4874 846.9166,-869.4874 846.9166,4 -4,4"/>
<!-- 1&#45;&gt;21 -->
<g id="edge43" class="edge">
<title>1&#45;&gt;21</title>
<path fill="none" stroke="#cccccc" d="M322.9134,-247.9219C325.7859,-235.4412 329.6615,-218.6021 332.768,-205.1045"/>
<polygon fill="#cccccc" stroke="#cccccc" points="334.5443,-205.1891 333.9604,-199.924 331.1334,-204.404 334.5443,-205.1891"/>
</g>
<!-- 1&#45;&gt;27 -->
<g id="edge47" class="edge">
<title>1&#45;&gt;27</title>
<path fill="none" stroke="#cccccc" d="M312.5012,-248.2534C306.3891,-231.5562 297.1189,-206.2319 290.485,-188.1094"/>
<polygon fill="#cccccc" stroke="#cccccc" points="292.0508,-187.2958 288.6886,-183.2021 288.7641,-188.499 292.0508,-187.2958"/>
</g>
<!-- 1&#45;&gt;32 -->
<g id="edge53" class="edge">
<title>1&#45;&gt;32</title>
<path fill="none" stroke="#cccccc" d="M328.8679,-280.8036C344.7968,-304.9885 375.8793,-352.1811 393.3991,-378.7814"/>
<polygon fill="#cccccc" stroke="#cccccc" points="392.0863,-379.9697 396.298,-383.1828 395.0093,-378.0445 392.0863,-379.9697"/>
</g>
<!-- 1&#45;&gt;39 -->
<g id="edge68" class="edge">
<title>1&#45;&gt;39</title>
<path fill="none" stroke="#cccccc" d="M300.6835,-264.6592C281.2349,-263.6633 250.3146,-262.0801 229.0887,-260.9933"/>
<polygon fill="#cccccc" stroke="#cccccc" points="228.9971,-259.2364 223.9141,-260.7284 228.818,-262.7319 228.9971,-259.2364"/>
</g>
<!-- 1&#45;&gt;40 -->
<g id="edge11" class="edge">
<title>1&#45;&gt;40</title>
<path fill="none" stroke="#cccccc" d="M301.765,-271.5491C270.9864,-282.2876 206.2669,-304.868 172.2762,-316.7273"/>
<polygon fill="#cccccc" stroke="#cccccc" points="171.6363,-315.097 167.4919,-318.3965 172.7893,-318.4017 171.6363,-315.097"/>
</g>
<!-- 1&#45;&gt;42 -->
<g id="edge28" class="edge">
<title>1&#45;&gt;42</title>
<path fill="none" stroke="#cccccc" d="M335.8813,-259.0598C367.7307,-246.8515 436.2502,-220.5872 471.4062,-207.1115"/>
<polygon fill="#cccccc" stroke="#cccccc" points="472.3003,-208.643 476.3427,-205.2193 471.0476,-205.3748 472.3003,-208.643"/>
</g>
<!-- 2&#45;&gt;3 -->
<g id="edge32" class="edge">
<title>2&#45;&gt;3</title>
<path fill="none" stroke="#cccccc" d="M752.9931,-382.5394C740.0162,-387.4274 722.0318,-394.2016 707.9647,-399.5003"/>
<polygon fill="#cccccc" stroke="#cccccc" points="707.038,-397.9792 702.9758,-401.3794 708.2718,-401.2546 707.038,-397.9792"/>
</g>
<!-- 2&#45;&gt;19 -->
<g id="edge36" class="edge">
<title>2&#45;&gt;19</title>
<path fill="none" stroke="#cccccc" d="M755.3782,-365.3423C743.7307,-356.7357 727.3402,-344.6245 714.7359,-335.311"/>
<polygon fill="#cccccc" stroke="#cccccc" points="715.6802,-333.8328 710.6189,-332.2689 713.6002,-336.6478 715.6802,-333.8328"/>
</g>
<!-- 2&#45;&gt;48 -->
<g id="edge55" class="edge">
<title>2&#45;&gt;48</title>
<path fill="none" stroke="#cccccc" d="M782.2409,-362.6982C789.9733,-354.2169 800.0334,-343.1824 808.3402,-334.0709"/>
<polygon fill="#cccccc" stroke="#cccccc" points="809.7056,-335.1708 811.781,-330.2968 807.1191,-332.8127 809.7056,-335.1708"/>
</g>
<!-- 2&#45;&gt;49 -->
<g id="edge70" class="edge">
<title>2&#45;&gt;49</title>
<path fill="none" stroke="#cccccc" d="M781.9068,-389.9191C790.0404,-399.3238 800.8865,-411.8648 809.6518,-421.9999"/>
<polygon fill="#cccccc" stroke="#cccccc" points="808.4268,-423.2588 813.0212,-425.8959 811.0741,-420.9693 808.4268,-423.2588"/>
</g>
<!-- 3&#45;&gt;22 -->
<g id="edge33" class="edge">
<title>3&#45;&gt;22</title>
<path fill="none" stroke="#cccccc" d="M672.0303,-396.2647C653.4882,-380.9984 620.7313,-354.0286 600.3634,-337.259"/>
<polygon fill="#cccccc" stroke="#cccccc" points="601.4352,-335.8747 596.4628,-334.0476 599.2105,-338.5767 601.4352,-335.8747"/>
</g>
<!-- 3&#45;&gt;46 -->
<g id="edge59" class="edge">
<title>3&#45;&gt;46</title>
<path fill="none" stroke="#cccccc" d="M693.2191,-424.6758C699.1708,-438.6241 707.6568,-458.5118 714.1181,-473.6546"/>
<polygon fill="#cccccc" stroke="#cccccc" points="712.6532,-474.6806 716.2252,-478.5926 715.8724,-473.307 712.6532,-474.6806"/>
</g>
<!-- 4&#45;&gt;18 -->
<g id="edge57" class="edge">
<title>4&#45;&gt;18</title>
<path fill="none" stroke="#cccccc" d="M103.5374,-187.207C116.2714,-171.9665 136.8011,-147.3961 150.8093,-130.6306"/>
<polygon fill="#cccccc" stroke="#cccccc" points="152.3585,-131.5059 154.2215,-126.5468 149.6726,-129.2617 152.3585,-131.5059"/>
</g>
<!-- 4&#45;&gt;37 -->
<g id="edge44" class="edge">
<title>4&#45;&gt;37</title>
<path fill="none" stroke="#cccccc" d="M102.2289,-216.1286C107.9487,-224.5517 115.1335,-235.1321 121.2533,-244.1444"/>
<polygon fill="#cccccc" stroke="#cccccc" points="119.9043,-245.2729 124.161,-248.4263 122.7998,-243.3067 119.9043,-245.2729"/>
</g>
<!-- 4&#45;&gt;40 -->
<g id="edge7" class="edge">
<title>4&#45;&gt;40</title>
<path fill="none" stroke="#cccccc" d="M99.7341,-217.4155C110.2028,-239.5306 128.8697,-278.9647 140.3779,-303.2756"/>
<polygon fill="#cccccc" stroke="#cccccc" points="138.8585,-304.1561 142.5795,-307.9266 142.0219,-302.6586 138.8585,-304.1561"/>
</g>
<!-- 5&#45;&gt;34 -->
<g id="edge18" class="edge">
<title>5&#45;&gt;34</title>
<path fill="none" stroke="#cccccc" d="M372.7563,-118.6385C376.8095,-146.4127 384.6171,-199.9133 389.1099,-230.6991"/>
<polygon fill="#cccccc" stroke="#cccccc" points="387.4012,-231.1098 389.8549,-235.8047 390.8645,-230.6043 387.4012,-231.1098"/>
</g>
<!-- 6&#45;&gt;32 -->
<g id="edge51" class="edge">
<title>6&#45;&gt;32</title>
<path fill="none" stroke="#cccccc" d="M305.6896,-390.91C326.3113,-392.4097 360.1669,-394.8719 382.8148,-396.5189"/>
<polygon fill="#cccccc" stroke="#cccccc" points="382.9193,-398.2811 388.0331,-396.8984 383.1732,-394.7903 382.9193,-398.2811"/>
</g>
<!-- 6&#45;&gt;40 -->
<g id="edge10" class="edge">
<title>6&#45;&gt;40</title>
<path fill="none" stroke="#cccccc" d="M271.3979,-381.8623C246.4137,-369.995 198.6537,-347.3093 171.1899,-334.2642"/>
<polygon fill="#cccccc" stroke="#cccccc" points="171.9028,-332.6655 166.6356,-332.1009 170.4011,-335.8269 171.9028,-332.6655"/>
</g>
<!-- 7&#45;&gt;16 -->
<g id="edge41" class="edge">
<title>7&#45;&gt;16</title>
<path fill="none" stroke="#cccccc" d="M227.3504,-358.0053C219.2472,-386.791 203.1083,-444.1229 194.1759,-475.8543"/>
<polygon fill="#cccccc" stroke="#cccccc" points="192.4769,-475.4318 192.8065,-480.7189 195.8459,-476.3802 192.4769,-475.4318"/>
</g>
<!-- 7&#45;&gt;17 -->
<g id="edge65" class="edge">
<title>7&#45;&gt;17</title>
<path fill="none" stroke="#cccccc" d="M229.5098,-358.6617C227.8408,-369.6205 225.6969,-383.6976 223.9039,-395.4707"/>
<polygon fill="#cccccc" stroke="#cccccc" points="222.1306,-395.4918 223.1078,-400.6983 225.5907,-396.0188 222.1306,-395.4918"/>
</g>
<!-- 7&#45;&gt;34 -->
<g id="edge22" class="edge">
<title>7&#45;&gt;34</title>
<path fill="none" stroke="#cccccc" d="M248.2236,-331.912C277.4995,-316.1148 339.7627,-282.5177 372.0871,-265.0755"/>
<polygon fill="#cccccc" stroke="#cccccc" points="373.0623,-266.5379 376.6315,-262.6234 371.4002,-263.4577 373.0623,-266.5379"/>
</g>
<!-- 7&#45;&gt;37 -->
<g id="edge45" class="edge">
<title>7&#45;&gt;37</title>
<path fill="none" stroke="#cccccc" d="M217.8187,-329.1366C200.5013,-315.4994 171.4682,-292.6363 152.6051,-277.7819"/>
<polygon fill="#cccccc" stroke="#cccccc" points="153.5202,-276.275 148.5092,-274.5565 151.3548,-279.0248 153.5202,-276.275"/>
</g>
<!-- 7&#45;&gt;39 -->
<g id="edge69" class="edge">
<title>7&#45;&gt;39</title>
<path fill="none" stroke="#cccccc" d="M226.6576,-323.4007C222.7177,-311.3895 217.4112,-295.2122 213.1361,-282.1793"/>
<polygon fill="#cccccc" stroke="#cccccc" points="214.7151,-281.378 211.4938,-277.1725 211.3894,-282.4689 214.7151,-281.378"/>
</g>
<!-- 7&#45;&gt;40 -->
<g id="edge12" class="edge">
<title>7&#45;&gt;40</title>
<path fill="none" stroke="#cccccc" d="M214.4999,-337.0154C202.3711,-334.6244 186.1978,-331.4361 173.1271,-328.8594"/>
<polygon fill="#cccccc" stroke="#cccccc" points="173.3467,-327.1191 168.1026,-327.869 172.6697,-330.5531 173.3467,-327.1191"/>
</g>
<!-- 8&#45;&gt;17 -->
<g id="edge64" class="edge">
<title>8&#45;&gt;17</title>
<path fill="none" stroke="#cccccc" d="M141.8297,-407.8075C157.5011,-409.9897 180.2094,-413.1518 197.18,-415.5149"/>
<polygon fill="#cccccc" stroke="#cccccc" points="197.0548,-417.2643 202.2484,-416.2207 197.5376,-413.7977 197.0548,-417.2643"/>
</g>
<!-- 8&#45;&gt;40 -->
<g id="edge8" class="edge">
<title>8&#45;&gt;40</title>
<path fill="none" stroke="#cccccc" d="M129.3051,-388.117C133.3093,-375.9966 138.7119,-359.6436 143.0423,-346.5357"/>
<polygon fill="#cccccc" stroke="#cccccc" points="144.7975,-346.8013 144.7044,-341.5047 141.4742,-345.7034 144.7975,-346.8013"/>
</g>
<!-- 9&#45;&gt;18 -->
<g id="edge56" class="edge">
<title>9&#45;&gt;18</title>
<path fill="none" stroke="#cccccc" d="M153.1727,-177.4336C155.6038,-165.0738 158.8512,-148.5641 161.4625,-135.2881"/>
<polygon fill="#cccccc" stroke="#cccccc" points="163.2174,-135.4332 162.4654,-130.1894 159.7832,-134.7576 163.2174,-135.4332"/>
</g>
<!-- 9&#45;&gt;39 -->
<g id="edge66" class="edge">
<title>9&#45;&gt;39</title>
<path fill="none" stroke="#cccccc" d="M161.5449,-209.0749C169.9587,-218.7199 181.3106,-231.733 190.4099,-242.1638"/>
<polygon fill="#cccccc" stroke="#cccccc" points="189.2967,-243.5498 193.9023,-246.1672 191.9342,-241.249 189.2967,-243.5498"/>
</g>
<!-- 9&#45;&gt;40 -->
<g id="edge6" class="edge">
<title>9&#45;&gt;40</title>
<path fill="none" stroke="#cccccc" d="M149.7376,-213.6237C149.8675,-236.5679 150.0909,-276.036 150.2329,-301.136"/>
<polygon fill="#cccccc" stroke="#cccccc" points="148.4836,-301.2729 150.2619,-306.2628 151.9835,-301.253 148.4836,-301.2729"/>
</g>
<!-- 10&#45;&gt;12 -->
<g id="edge3" class="edge">
<title>10&#45;&gt;12</title>
<path fill="none" stroke="#cccccc" d="M137.0326,-523.3406C133.6191,-519.4329 129.8589,-515.1284 126.2802,-511.0316"/>
<polygon fill="#cccccc" stroke="#cccccc" points="127.3889,-509.6407 122.7815,-507.0264 124.753,-511.9433 127.3889,-509.6407"/>
</g>
<!-- 10&#45;&gt;16 -->
<g id="edge39" class="edge">
<title>10&#45;&gt;16</title>
<path fill="none" stroke="#cccccc" d="M162.2443,-524.0193C165.2096,-521.0403 168.3941,-517.8412 171.4754,-514.7456"/>
<polygon fill="#cccccc" stroke="#cccccc" points="172.7389,-515.957 175.0261,-511.1787 170.2583,-513.4878 172.7389,-515.957"/>
</g>
<!-- 10&#45;&gt;17 -->
<g id="edge61" class="edge">
<title>10&#45;&gt;17</title>
<path fill="none" stroke="#cccccc" d="M158.4439,-521.7067C171.2414,-500.4248 194.2768,-462.1177 208.3551,-438.7059"/>
<polygon fill="#cccccc" stroke="#cccccc" points="209.9686,-439.4184 211.0456,-434.2316 206.9692,-437.6147 209.9686,-439.4184"/>
</g>
<!-- 11&#45;&gt;12 -->
<g id="edge2" class="edge">
<title>11&#45;&gt;12</title>
<path fill="none" stroke="#cccccc" d="M63.8743,-445.0194C72.8142,-454.2214 84.8759,-466.6367 94.5441,-476.5884"/>
<polygon fill="#cccccc" stroke="#cccccc" points="93.5156,-478.0411 98.2549,-480.408 96.026,-475.6023 93.5156,-478.0411"/>
</g>
<!-- 11&#45;&gt;40 -->
<g id="edge4" class="edge">
<title>11&#45;&gt;40</title>
<path fill="none" stroke="#cccccc" d="M63.7762,-418.3631C81.7297,-398.8747 114.7328,-363.0501 134.3993,-341.7023"/>
<polygon fill="#cccccc" stroke="#cccccc" points="135.8089,-342.755 137.9096,-337.8918 133.2347,-340.3835 135.8089,-342.755"/>
</g>
<!-- 12&#45;&gt;16 -->
<g id="edge38" class="edge">
<title>12&#45;&gt;16</title>
<path fill="none" stroke="#cccccc" d="M129.1325,-494.5689C139.7727,-495.2419 153.2989,-496.0975 164.6878,-496.8178"/>
<polygon fill="#cccccc" stroke="#cccccc" points="164.6515,-498.5689 169.752,-497.1381 164.8725,-495.0759 164.6515,-498.5689"/>
</g>
<!-- 12&#45;&gt;17 -->
<g id="edge60" class="edge">
<title>12&#45;&gt;17</title>
<path fill="none" stroke="#cccccc" d="M126.1127,-483.0323C145.638,-469.7132 179.528,-446.5955 200.9057,-432.0129"/>
<polygon fill="#cccccc" stroke="#cccccc" points="202.1235,-433.3007 205.2679,-429.0373 200.1512,-430.4093 202.1235,-433.3007"/>
</g>
<!-- 13&#45;&gt;18 -->
<g id="edge58" class="edge">
<title>13&#45;&gt;18</title>
<path fill="none" stroke="#cccccc" d="M168.2723,-36.2246C167.8127,-51.2623 167.1575,-72.7032 166.6585,-89.0287"/>
<polygon fill="#cccccc" stroke="#cccccc" points="164.8995,-89.3013 166.4958,-94.3524 168.3979,-89.4083 164.8995,-89.3013"/>
</g>
<!-- 14&#45;&gt;16 -->
<g id="edge42" class="edge">
<title>14&#45;&gt;16</title>
<path fill="none" stroke="#cccccc" d="M149.0723,-604.2349C157.1084,-582.2848 171.0567,-544.1861 179.8552,-520.1535"/>
<polygon fill="#cccccc" stroke="#cccccc" points="181.5749,-520.5465 181.6506,-515.2496 178.2882,-519.3432 181.5749,-520.5465"/>
</g>
<!-- 15&#45;&gt;16 -->
<g id="edge40" class="edge">
<title>15&#45;&gt;16</title>
<path fill="none" stroke="#cccccc" d="M228.4174,-531.2786C221.5897,-525.7238 213.3049,-518.9834 206.0076,-513.0465"/>
<polygon fill="#cccccc" stroke="#cccccc" points="207.0537,-511.6415 202.0707,-509.8435 204.8448,-514.3565 207.0537,-511.6415"/>
</g>
<!-- 15&#45;&gt;17 -->
<g id="edge62" class="edge">
<title>15&#45;&gt;17</title>
<path fill="none" stroke="#cccccc" d="M239.314,-524.9595C235.4039,-503.048 228.7489,-465.7541 224.4551,-441.6928"/>
<polygon fill="#cccccc" stroke="#cccccc" points="226.1249,-441.0878 223.5237,-436.473 222.6793,-441.7027 226.1249,-441.0878"/>
</g>
<!-- 16&#45;&gt;17 -->
<g id="edge63" class="edge">
<title>16&#45;&gt;17</title>
<path fill="none" stroke="#cccccc" d="M194.7539,-481.415C199.6226,-469.4985 206.1915,-453.4206 211.4568,-440.5332"/>
<polygon fill="#cccccc" stroke="#cccccc" points="213.2066,-440.8774 213.4777,-435.5869 209.9666,-439.5536 213.2066,-440.8774"/>
</g>
<!-- 17&#45;&gt;34 -->
<g id="edge24" class="edge">
<title>17&#45;&gt;34</title>
<path fill="none" stroke="#cccccc" d="M233.5828,-406.093C264.4523,-376.5623 341.2398,-303.1052 375.5212,-270.3105"/>
<polygon fill="#cccccc" stroke="#cccccc" points="377.0819,-271.2394 379.4852,-266.5184 374.6625,-268.7102 377.0819,-271.2394"/>
</g>
<!-- 17&#45;&gt;40 -->
<g id="edge13" class="edge">
<title>17&#45;&gt;40</title>
<path fill="none" stroke="#cccccc" d="M209.4229,-403.9972C197.3005,-387.6533 177.7133,-361.245 164.4514,-343.3648"/>
<polygon fill="#cccccc" stroke="#cccccc" points="165.6087,-341.9874 161.2244,-339.014 162.7975,-344.0725 165.6087,-341.9874"/>
</g>
<!-- 18&#45;&gt;27 -->
<g id="edge48" class="edge">
<title>18&#45;&gt;27</title>
<path fill="none" stroke="#cccccc" d="M182.6286,-120.1926C203.3001,-129.6954 238.5445,-145.8974 261.1388,-156.284"/>
<polygon fill="#cccccc" stroke="#cccccc" points="260.4844,-157.9092 265.7584,-158.4077 261.9464,-154.7291 260.4844,-157.9092"/>
</g>
<!-- 19&#45;&gt;22 -->
<g id="edge34" class="edge">
<title>19&#45;&gt;22</title>
<path fill="none" stroke="#cccccc" d="M678.0293,-321.6471C658.5245,-321.8109 627.3335,-322.073 605.9044,-322.253"/>
<polygon fill="#cccccc" stroke="#cccccc" points="605.6647,-320.5049 600.6796,-322.2969 605.6942,-324.0047 605.6647,-320.5049"/>
</g>
<!-- 20&#45;&gt;34 -->
<g id="edge15" class="edge">
<title>20&#45;&gt;34</title>
<path fill="none" stroke="#cccccc" d="M492.3074,-251.6746C471.7254,-252.1647 438.1396,-252.9646 415.6901,-253.4993"/>
<polygon fill="#cccccc" stroke="#cccccc" points="415.4749,-251.7538 410.518,-253.6225 415.5583,-255.2528 415.4749,-251.7538"/>
</g>
<!-- 20&#45;&gt;42 -->
<g id="edge27" class="edge">
<title>20&#45;&gt;42</title>
<path fill="none" stroke="#cccccc" d="M504.8188,-234.0578C503.4596,-229.9326 501.9882,-225.4669 500.5639,-221.144"/>
<polygon fill="#cccccc" stroke="#cccccc" points="502.1499,-220.3652 498.923,-216.1639 498.8257,-221.4605 502.1499,-220.3652"/>
</g>
<!-- 21&#45;&gt;27 -->
<g id="edge46" class="edge">
<title>21&#45;&gt;27</title>
<path fill="none" stroke="#cccccc" d="M320.7317,-177.2398C315.6546,-175.7591 310.029,-174.1184 304.6873,-172.5605"/>
<polygon fill="#cccccc" stroke="#cccccc" points="305.1753,-170.88 299.8853,-171.16 304.1953,-174.24 305.1753,-170.88"/>
</g>
<!-- 21&#45;&gt;34 -->
<g id="edge20" class="edge">
<title>21&#45;&gt;34</title>
<path fill="none" stroke="#cccccc" d="M349.049,-196.8057C357.4699,-207.8954 369.1402,-223.2645 378.2685,-235.2859"/>
<polygon fill="#cccccc" stroke="#cccccc" points="377.0883,-236.6255 381.5059,-239.5492 379.8758,-234.5088 377.0883,-236.6255"/>
</g>
<!-- 22&#45;&gt;34 -->
<g id="edge19" class="edge">
<title>22&#45;&gt;34</title>
<path fill="none" stroke="#cccccc" d="M565.1938,-316.26C530.5999,-303.7971 452.6096,-275.7001 414.4213,-261.9422"/>
<polygon fill="#cccccc" stroke="#cccccc" points="414.823,-260.2269 409.5258,-260.1785 413.6366,-263.5197 414.823,-260.2269"/>
</g>
<!-- 23&#45;&gt;40 -->
<g id="edge5" class="edge">
<title>23&#45;&gt;40</title>
<path fill="none" stroke="#cccccc" d="M40.1314,-294.4839C62.8387,-300.6407 102.5158,-311.3986 127.5627,-318.1898"/>
<polygon fill="#cccccc" stroke="#cccccc" points="127.3903,-319.9562 132.674,-319.5757 128.3063,-316.5781 127.3903,-319.9562"/>
</g>
<!-- 24&#45;&gt;32 -->
<g id="edge52" class="edge">
<title>24&#45;&gt;32</title>
<path fill="none" stroke="#cccccc" d="M396.5072,-500.2424C398.5055,-479.2131 401.8195,-444.3377 404.0073,-421.3148"/>
<polygon fill="#cccccc" stroke="#cccccc" points="405.7523,-421.4488 404.4833,-416.3056 402.268,-421.1176 405.7523,-421.4488"/>
</g>
<!-- 25&#45;&gt;31 -->
<g id="edge35" class="edge">
<title>25&#45;&gt;31</title>
<path fill="none" stroke="#cccccc" d="M565.3451,-563.4476C555.9909,-549.9458 542.2466,-530.1076 532.0863,-515.4425"/>
<polygon fill="#cccccc" stroke="#cccccc" points="533.3431,-514.1834 529.0571,-511.0701 530.4661,-516.1767 533.3431,-514.1834"/>
</g>
<!-- 26&#45;&gt;34 -->
<g id="edge26" class="edge">
<title>26&#45;&gt;34</title>
<path fill="none" stroke="#cccccc" d="M418.6367,-173.5701C413.345,-189.8753 405.4362,-214.2452 399.7083,-231.8946"/>
<polygon fill="#cccccc" stroke="#cccccc" points="398.0336,-231.386 398.1546,-236.6821 401.3626,-232.4665 398.0336,-231.386"/>
</g>
<!-- 27&#45;&gt;34 -->
<g id="edge21" class="edge">
<title>27&#45;&gt;34</title>
<path fill="none" stroke="#cccccc" d="M296.8094,-177.5676C316.5916,-193.3762 352.1992,-221.8314 373.9612,-239.2221"/>
<polygon fill="#cccccc" stroke="#cccccc" points="373.1217,-240.7914 378.1202,-242.5457 375.3067,-238.0571 373.1217,-240.7914"/>
</g>
<!-- 28&#45;&gt;32 -->
<g id="edge54" class="edge">
<title>28&#45;&gt;32</title>
<path fill="none" stroke="#cccccc" d="M442.9746,-354.0966C436.4191,-361.9624 428.1848,-371.8427 421.1709,-380.2586"/>
<polygon fill="#cccccc" stroke="#cccccc" points="419.6952,-379.2958 417.8384,-384.2572 422.3839,-381.5366 419.6952,-379.2958"/>
</g>
<!-- 28&#45;&gt;34 -->
<g id="edge25" class="edge">
<title>28&#45;&gt;34</title>
<path fill="none" stroke="#cccccc" d="M443.8846,-325.0324C433.4491,-310.612 417.6216,-288.741 406.2953,-273.0897"/>
<polygon fill="#cccccc" stroke="#cccccc" points="407.5773,-271.8762 403.2283,-268.8515 404.7419,-273.9281 407.5773,-271.8762"/>
</g>
<!-- 29&#45;&gt;34 -->
<g id="edge17" class="edge">
<title>29&#45;&gt;34</title>
<path fill="none" stroke="#cccccc" d="M434.7481,-116.3308C426.0708,-144.629 408.9703,-200.3965 399.4065,-231.5858"/>
<polygon fill="#cccccc" stroke="#cccccc" points="397.7315,-231.0791 397.9387,-236.3725 401.0777,-232.1052 397.7315,-231.0791"/>
</g>
<!-- 30&#45;&gt;32 -->
<g id="edge49" class="edge">
<title>30&#45;&gt;32</title>
<path fill="none" stroke="#cccccc" d="M447.4383,-480.7221C439.0016,-463.8427 425.7988,-437.4276 416.6135,-419.0505"/>
<polygon fill="#cccccc" stroke="#cccccc" points="418.171,-418.2523 414.3702,-414.5622 415.0403,-419.8171 418.171,-418.2523"/>
</g>
<!-- 31&#45;&gt;32 -->
<g id="edge50" class="edge">
<title>31&#45;&gt;32</title>
<path fill="none" stroke="#cccccc" d="M504.845,-484.0289C484.5311,-466.358 446.5451,-433.3141 424.1025,-413.7914"/>
<polygon fill="#cccccc" stroke="#cccccc" points="425.0217,-412.2715 420.1006,-410.3102 422.7245,-414.9122 425.0217,-412.2715"/>
</g>
<!-- 32&#45;&gt;34 -->
<g id="edge23" class="edge">
<title>32&#45;&gt;34</title>
<path fill="none" stroke="#cccccc" d="M404.4964,-380.2522C402.0278,-354.2444 397.4569,-306.0879 394.7312,-277.3713"/>
<polygon fill="#cccccc" stroke="#cccccc" points="396.4594,-277.0574 394.2447,-272.2452 392.975,-277.3882 396.4594,-277.0574"/>
</g>
<!-- 33&#45;&gt;34 -->
<g id="edge16" class="edge">
<title>33&#45;&gt;34</title>
<path fill="none" stroke="#cccccc" d="M484.6683,-156.6237C465.6462,-176.7351 429.2834,-215.1801 408.3735,-237.2875"/>
<polygon fill="#cccccc" stroke="#cccccc" points="407.0704,-236.1184 404.906,-240.9535 409.6132,-238.5235 407.0704,-236.1184"/>
</g>
<!-- 35&#45;&gt;53 -->
<g id="edge30" class="edge">
<title>35&#45;&gt;53</title>
<path fill="none" stroke="#cccccc" d="M644.9585,-64.9651C640.0226,-76.5689 633.4295,-92.0688 628.1277,-104.5329"/>
<polygon fill="#cccccc" stroke="#cccccc" points="626.4383,-104.0336 626.0915,-109.3197 629.6591,-105.4037 626.4383,-104.0336"/>
</g>
<!-- 37&#45;&gt;39 -->
<g id="edge67" class="edge">
<title>37&#45;&gt;39</title>
<path fill="none" stroke="#cccccc" d="M152.352,-262.4754C161.4251,-262.0213 172.5345,-261.4653 182.2695,-260.9781"/>
<polygon fill="#cccccc" stroke="#cccccc" points="182.6086,-262.7134 187.5149,-260.7156 182.4336,-259.2178 182.6086,-262.7134"/>
</g>
<!-- 38&#45;&gt;40 -->
<g id="edge9" class="edge">
<title>38&#45;&gt;40</title>
<path fill="none" stroke="#cccccc" d="M35.577,-353.7878C59.3112,-347.7056 101.6324,-336.8603 127.7233,-330.1743"/>
<polygon fill="#cccccc" stroke="#cccccc" points="128.3057,-331.8316 132.7148,-328.8951 127.4368,-328.4412 128.3057,-331.8316"/>
</g>
<!-- 39&#45;&gt;40 -->
<g id="edge14" class="edge">
<title>39&#45;&gt;40</title>
<path fill="none" stroke="#cccccc" d="M194.0399,-273.4946C185.7355,-283.1685 174.5311,-296.2205 165.55,-306.6826"/>
<polygon fill="#cccccc" stroke="#cccccc" points="164.032,-305.7642 162.103,-310.698 166.6877,-308.044 164.032,-305.7642"/>
</g>
<!-- 42&#45;&gt;53 -->
<g id="edge29" class="edge">
<title>42&#45;&gt;53</title>
<path fill="none" stroke="#cccccc" d="M508.8734,-189.682C531.5758,-176.5392 573.6122,-152.2037 598.6793,-137.692"/>
<polygon fill="#cccccc" stroke="#cccccc" points="599.7035,-139.1212 603.1539,-135.1016 597.9499,-136.0922 599.7035,-139.1212"/>
</g>
<!-- 45&#45;&gt;53 -->
<g id="edge31" class="edge">
<title>45&#45;&gt;53</title>
<path fill="none" stroke="#cccccc" d="M692.6016,-129.731C678.1614,-128.9805 657.8412,-127.9243 642.2149,-127.1121"/>
<polygon fill="#cccccc" stroke="#cccccc" points="642.1949,-125.3588 637.1108,-126.8469 642.0132,-128.8541 642.1949,-125.3588"/>
</g>
<!-- 52&#45;&gt;54 -->
<g id="edge1" class="edge">
<title>52&#45;&gt;54</title>
<path fill="none" stroke="#cccccc" d="M262.6133,-802.3729C255.1884,-800.6879 246.4568,-798.7064 238.5436,-796.9105"/>
<polygon fill="#cccccc" stroke="#cccccc" points="238.4854,-795.1029 233.222,-795.7028 237.7107,-798.5161 238.4854,-795.1029"/>
</g>
<!-- 54&#45;&gt;55 -->
<g id="edge37" class="edge">
<title>54&#45;&gt;55</title>
<path fill="none" stroke="#cccccc" d="M198.0559,-786.6642C190.0167,-784.3534 180.3773,-781.5828 171.7776,-779.1109"/>
<polygon fill="#cccccc" stroke="#cccccc" points="171.87,-777.3167 166.5811,-777.6173 170.9031,-780.6805 171.87,-777.3167"/>
</g>
<!-- 1 -->
<g id="node1" class="node">
<title>1</title>
<ellipse fill="#d95f02" stroke="#d95f02" cx="318.8472" cy="-265.5892" rx="18" ry="18"/>
<text text-anchor="middle" x="318.8472" y="-268.5892" font-family="Helvetica,sans-Serif" font-size="10.00" fill="#000000">Rcpp</text>
<text text-anchor="middle" x="318.8472" y="-256.5892" font-family="Helvetica,sans-Serif" font-size="10.00" fill="#000000">6337</text>
</g>
<!-- 2 -->
<g id="node2" class="node">
<title>2</title>
<ellipse fill="#d95f02" stroke="#d95f02" cx="769.9881" cy="-376.1378" rx="18" ry="18"/>
<text text-anchor="middle" x="769.9881" y="-379.1378" font-family="Helvetica,sans-Serif" font-size="10.00" fill="#000000">lattice</text>
<text text-anchor="middle" x="769.9881" y="-367.1378" font-family="Helvetica,sans-Serif" font-size="10.00" fill="#000000">6045</text>
</g>
<!-- 3 -->
<g id="node3" class="node">
<title>3</title>
<ellipse fill="#e7298a" stroke="#e7298a" cx="686.0061" cy="-407.7715" rx="18" ry="18"/>
<text text-anchor="middle" x="686.0061" y="-410.7715" font-family="Helvetica,sans-Serif" font-size="10.00" fill="#000000">Matrix</text>
<text text-anchor="middle" x="686.0061" y="-398.7715" font-family="Helvetica,sans-Serif" font-size="10.00" fill="#000000">5012</text>
</g>
<!-- 4 -->
<g id="node4" class="node">
<title>4</title>
<ellipse fill="#d95f02" stroke="#d95f02" cx="91.9812" cy="-201.0377" rx="18" ry="18"/>
<text text-anchor="middle" x="91.9812" y="-204.0377" font-family="Helvetica,sans-Serif" font-size="10.00" fill="#000000">magrittr</text>
<text text-anchor="middle" x="91.9812" y="-192.0377" font-family="Helvetica,sans-Serif" font-size="10.00" fill="#000000">4901</text>
</g>
<!-- 5 -->
<g id="node5" class="node">
<title>5</title>
<ellipse fill="#d95f02" stroke="#d95f02" cx="370.1462" cy="-100.7532" rx="18" ry="18"/>
<text text-anchor="middle" x="370.1462" y="-103.7532" font-family="Helvetica,sans-Serif" font-size="10.00" fill="#000000">MASS</text>
<text text-anchor="middle" x="370.1462" y="-91.7532" font-family="Helvetica,sans-Serif" font-size="10.00" fill="#000000">4617</text>
</g>
<!-- 6 -->
<g id="node6" class="node">
<title>6</title>
<ellipse fill="#d95f02" stroke="#d95f02" cx="287.6903" cy="-389.601" rx="18" ry="18"/>
<text text-anchor="middle" x="287.6903" y="-392.601" font-family="Helvetica,sans-Serif" font-size="10.00" fill="#000000">R6</text>
<text text-anchor="middle" x="287.6903" y="-380.601" font-family="Helvetica,sans-Serif" font-size="10.00" fill="#000000">4300</text>
</g>
<!-- 7 -->
<g id="node7" class="node">
<title>7</title>
<ellipse fill="#d95f02" stroke="#d95f02" cx="232.2728" cy="-340.519" rx="18" ry="18"/>
<text text-anchor="middle" x="232.2728" y="-343.519" font-family="Helvetica,sans-Serif" font-size="10.00" fill="#000000">rlang</text>
<text text-anchor="middle" x="232.2728" y="-331.519" font-family="Helvetica,sans-Serif" font-size="10.00" fill="#000000">4017</text>
</g>
<!-- 8 -->
<g id="node8" class="node">
<title>8</title>
<ellipse fill="#d95f02" stroke="#d95f02" cx="123.6369" cy="-405.2742" rx="18" ry="18"/>
<text text-anchor="middle" x="123.6369" y="-408.2742" font-family="Helvetica,sans-Serif" font-size="10.00" fill="#000000">pkgconfig</text>
<text text-anchor="middle" x="123.6369" y="-396.2742" font-family="Helvetica,sans-Serif" font-size="10.00" fill="#000000">4005</text>
</g>
<!-- 9 -->
<g id="node9" class="node">
<title>9</title>
<ellipse fill="#d95f02" stroke="#d95f02" cx="149.6346" cy="-195.4218" rx="18" ry="18"/>
<text text-anchor="middle" x="149.6346" y="-198.4218" font-family="Helvetica,sans-Serif" font-size="10.00" fill="#000000">glue</text>
<text text-anchor="middle" x="149.6346" y="-186.4218" font-family="Helvetica,sans-Serif" font-size="10.00" fill="#000000">3971</text>
</g>
<!-- 10 -->
<g id="node10" class="node">
<title>10</title>
<ellipse fill="#d95f02" stroke="#d95f02" cx="149.1321" cy="-537.1918" rx="18" ry="18"/>
<text text-anchor="middle" x="149.1321" y="-540.1918" font-family="Helvetica,sans-Serif" font-size="10.00" fill="#000000">crayon</text>
<text text-anchor="middle" x="149.1321" y="-528.1918" font-family="Helvetica,sans-Serif" font-size="10.00" fill="#000000">3945</text>
</g>
<!-- 11 -->
<g id="node11" class="node">
<title>11</title>
<ellipse fill="#d95f02" stroke="#d95f02" cx="51.2194" cy="-431.9934" rx="18" ry="18"/>
<text text-anchor="middle" x="51.2194" y="-434.9934" font-family="Helvetica,sans-Serif" font-size="10.00" fill="#000000">assertthat</text>
<text text-anchor="middle" x="51.2194" y="-422.9934" font-family="Helvetica,sans-Serif" font-size="10.00" fill="#000000">3880</text>
</g>
<!-- 12 -->
<g id="node12" class="node">
<title>12</title>
<ellipse fill="#e7298a" stroke="#e7298a" cx="110.8916" cy="-493.4152" rx="18" ry="18"/>
<text text-anchor="middle" x="110.8916" y="-496.4152" font-family="Helvetica,sans-Serif" font-size="10.00" fill="#000000">cli</text>
<text text-anchor="middle" x="110.8916" y="-484.4152" font-family="Helvetica,sans-Serif" font-size="10.00" fill="#000000">3718</text>
</g>
<!-- 13 -->
<g id="node13" class="node">
<title>13</title>
<ellipse fill="#d95f02" stroke="#d95f02" cx="168.8293" cy="-18" rx="18" ry="18"/>
<text text-anchor="middle" x="168.8293" y="-21" font-family="Helvetica,sans-Serif" font-size="10.00" fill="#000000">stringi</text>
<text text-anchor="middle" x="168.8293" y="-9" font-family="Helvetica,sans-Serif" font-size="10.00" fill="#000000">3714</text>
</g>
<!-- 14 -->
<g id="node14" class="node">
<title>14</title>
<ellipse fill="#d95f02" stroke="#d95f02" cx="142.8076" cy="-621.3462" rx="18" ry="18"/>
<text text-anchor="middle" x="142.8076" y="-624.3462" font-family="Helvetica,sans-Serif" font-size="10.00" fill="#000000">utf8</text>
<text text-anchor="middle" x="142.8076" y="-612.3462" font-family="Helvetica,sans-Serif" font-size="10.00" fill="#000000">3613</text>
</g>
<!-- 15 -->
<g id="node15" class="node">
<title>15</title>
<ellipse fill="#d95f02" stroke="#d95f02" cx="242.4839" cy="-542.7228" rx="18" ry="18"/>
<text text-anchor="middle" x="242.4839" y="-545.7228" font-family="Helvetica,sans-Serif" font-size="10.00" fill="#000000">fansi</text>
<text text-anchor="middle" x="242.4839" y="-533.7228" font-family="Helvetica,sans-Serif" font-size="10.00" fill="#000000">3612</text>
</g>
<!-- 16 -->
<g id="node16" class="node">
<title>16</title>
<ellipse fill="#e7298a" stroke="#e7298a" cx="187.862" cy="-498.2836" rx="18" ry="18"/>
<text text-anchor="middle" x="187.862" y="-501.2836" font-family="Helvetica,sans-Serif" font-size="10.00" fill="#000000">pillar</text>
<text text-anchor="middle" x="187.862" y="-489.2836" font-family="Helvetica,sans-Serif" font-size="10.00" fill="#000000">3610</text>
</g>
<!-- 17 -->
<g id="node17" class="node">
<title>17</title>
<ellipse fill="#e7298a" stroke="#e7298a" cx="220.3597" cy="-418.7426" rx="18" ry="18"/>
<text text-anchor="middle" x="220.3597" y="-421.7426" font-family="Helvetica,sans-Serif" font-size="10.00" fill="#000000">tibble</text>
<text text-anchor="middle" x="220.3597" y="-409.7426" font-family="Helvetica,sans-Serif" font-size="10.00" fill="#000000">3608</text>
</g>
<!-- 18 -->
<g id="node18" class="node">
<title>18</title>
<ellipse fill="#e7298a" stroke="#e7298a" cx="165.9406" cy="-112.5211" rx="18" ry="18"/>
<text text-anchor="middle" x="165.9406" y="-115.5211" font-family="Helvetica,sans-Serif" font-size="10.00" fill="#000000">stringr</text>
<text text-anchor="middle" x="165.9406" y="-103.5211" font-family="Helvetica,sans-Serif" font-size="10.00" fill="#000000">3535</text>
</g>
<!-- 19 -->
<g id="node19" class="node">
<title>19</title>
<ellipse fill="#e7298a" stroke="#e7298a" cx="696.0393" cy="-321.4958" rx="18" ry="18"/>
<text text-anchor="middle" x="696.0393" y="-324.4958" font-family="Helvetica,sans-Serif" font-size="10.00" fill="#000000">nlme</text>
<text text-anchor="middle" x="696.0393" y="-312.4958" font-family="Helvetica,sans-Serif" font-size="10.00" fill="#000000">3511</text>
</g>
<!-- 20 -->
<g id="node20" class="node">
<title>20</title>
<ellipse fill="#d95f02" stroke="#d95f02" cx="510.4806" cy="-251.2417" rx="18" ry="18"/>
<text text-anchor="middle" x="510.4806" y="-254.2417" font-family="Helvetica,sans-Serif" font-size="10.00" fill="#000000">digest</text>
<text text-anchor="middle" x="510.4806" y="-242.2417" font-family="Helvetica,sans-Serif" font-size="10.00" fill="#000000">3387</text>
</g>
<!-- 21 -->
<g id="node21" class="node">
<title>21</title>
<ellipse fill="#e7298a" stroke="#e7298a" cx="338.0207" cy="-182.2822" rx="18" ry="18"/>
<text text-anchor="middle" x="338.0207" y="-185.2822" font-family="Helvetica,sans-Serif" font-size="10.00" fill="#000000">plyr</text>
<text text-anchor="middle" x="338.0207" y="-173.2822" font-family="Helvetica,sans-Serif" font-size="10.00" fill="#000000">3108</text>
</g>
<!-- 22 -->
<g id="node22" class="node">
<title>22</title>
<ellipse fill="#e7298a" stroke="#e7298a" cx="582.3775" cy="-322.4507" rx="18" ry="18"/>
<text text-anchor="middle" x="582.3775" y="-325.4507" font-family="Helvetica,sans-Serif" font-size="10.00" fill="#000000">mgcv</text>
<text text-anchor="middle" x="582.3775" y="-313.4507" font-family="Helvetica,sans-Serif" font-size="10.00" fill="#000000">2976</text>
</g>
<!-- 23 -->
<g id="node23" class="node">
<title>23</title>
<ellipse fill="#d95f02" stroke="#d95f02" cx="22.6396" cy="-289.7412" rx="18" ry="18"/>
<text text-anchor="middle" x="22.6396" y="-292.7412" font-family="Helvetica,sans-Serif" font-size="10.00" fill="#000000">BH</text>
<text text-anchor="middle" x="22.6396" y="-280.7412" font-family="Helvetica,sans-Serif" font-size="10.00" fill="#000000">2832</text>
</g>
<!-- 24 -->
<g id="node24" class="node">
<title>24</title>
<ellipse fill="#d95f02" stroke="#d95f02" cx="394.8003" cy="-518.2055" rx="18" ry="18"/>
<text text-anchor="middle" x="394.8003" y="-521.2055" font-family="Helvetica,sans-Serif" font-size="10.00" fill="#000000">RColorBrewer</text>
<text text-anchor="middle" x="394.8003" y="-509.2055" font-family="Helvetica,sans-Serif" font-size="10.00" fill="#000000">2754</text>
</g>
<!-- 25 -->
<g id="node25" class="node">
<title>25</title>
<ellipse fill="#d95f02" stroke="#d95f02" cx="575.8377" cy="-578.5924" rx="18" ry="18"/>
<text text-anchor="middle" x="575.8377" y="-581.5924" font-family="Helvetica,sans-Serif" font-size="10.00" fill="#000000">colorspace</text>
<text text-anchor="middle" x="575.8377" y="-569.5924" font-family="Helvetica,sans-Serif" font-size="10.00" fill="#000000">2709</text>
</g>
<!-- 26 -->
<g id="node26" class="node">
<title>26</title>
<ellipse fill="#d95f02" stroke="#d95f02" cx="424.3228" cy="-156.0493" rx="18" ry="18"/>
<text text-anchor="middle" x="424.3228" y="-159.0493" font-family="Helvetica,sans-Serif" font-size="10.00" fill="#000000">withr</text>
<text text-anchor="middle" x="424.3228" y="-147.0493" font-family="Helvetica,sans-Serif" font-size="10.00" fill="#000000">2689</text>
</g>
<!-- 27 -->
<g id="node27" class="node">
<title>27</title>
<ellipse fill="#e7298a" stroke="#e7298a" cx="282.4154" cy="-166.065" rx="18" ry="18"/>
<text text-anchor="middle" x="282.4154" y="-169.065" font-family="Helvetica,sans-Serif" font-size="10.00" fill="#000000">reshape2</text>
<text text-anchor="middle" x="282.4154" y="-157.065" font-family="Helvetica,sans-Serif" font-size="10.00" fill="#000000">2681</text>
</g>
<!-- 28 -->
<g id="node28" class="node">
<title>28</title>
<ellipse fill="#d95f02" stroke="#d95f02" cx="454.7193" cy="-340.0043" rx="18" ry="18"/>
<text text-anchor="middle" x="454.7193" y="-343.0043" font-family="Helvetica,sans-Serif" font-size="10.00" fill="#000000">viridisLite</text>
<text text-anchor="middle" x="454.7193" y="-331.0043" font-family="Helvetica,sans-Serif" font-size="10.00" fill="#000000">2595</text>
</g>
<!-- 29 -->
<g id="node29" class="node">
<title>29</title>
<ellipse fill="#d95f02" stroke="#d95f02" cx="440.1157" cy="-98.8262" rx="18" ry="18"/>
<text text-anchor="middle" x="440.1157" y="-101.8262" font-family="Helvetica,sans-Serif" font-size="10.00" fill="#000000">lazyeval</text>
<text text-anchor="middle" x="440.1157" y="-89.8262" font-family="Helvetica,sans-Serif" font-size="10.00" fill="#000000">2584</text>
</g>
<!-- 30 -->
<g id="node30" class="node">
<title>30</title>
<ellipse fill="#d95f02" stroke="#d95f02" cx="455.5944" cy="-497.0403" rx="18" ry="18"/>
<text text-anchor="middle" x="455.5944" y="-500.0403" font-family="Helvetica,sans-Serif" font-size="10.00" fill="#000000">labeling</text>
<text text-anchor="middle" x="455.5944" y="-488.0403" font-family="Helvetica,sans-Serif" font-size="10.00" fill="#000000">2580</text>
</g>
<!-- 31 -->
<g id="node31" class="node">
<title>31</title>
<ellipse fill="#e7298a" stroke="#e7298a" cx="518.631" cy="-496.0212" rx="18" ry="18"/>
<text text-anchor="middle" x="518.631" y="-499.0212" font-family="Helvetica,sans-Serif" font-size="10.00" fill="#000000">munsell</text>
<text text-anchor="middle" x="518.631" y="-487.0212" font-family="Helvetica,sans-Serif" font-size="10.00" fill="#000000">2579</text>
</g>
<!-- 32 -->
<g id="node32" class="node">
<title>32</title>
<ellipse fill="#e7298a" stroke="#e7298a" cx="406.2019" cy="-398.2198" rx="18" ry="18"/>
<text text-anchor="middle" x="406.2019" y="-401.2198" font-family="Helvetica,sans-Serif" font-size="10.00" fill="#000000">scales</text>
<text text-anchor="middle" x="406.2019" y="-389.2198" font-family="Helvetica,sans-Serif" font-size="10.00" fill="#000000">2578</text>
</g>
<!-- 33 -->
<g id="node33" class="node">
<title>33</title>
<ellipse fill="#d95f02" stroke="#d95f02" cx="497.0727" cy="-143.509" rx="18" ry="18"/>
<text text-anchor="middle" x="497.0727" y="-146.509" font-family="Helvetica,sans-Serif" font-size="10.00" fill="#000000">gtable</text>
<text text-anchor="middle" x="497.0727" y="-134.509" font-family="Helvetica,sans-Serif" font-size="10.00" fill="#000000">2554</text>
</g>
<!-- 34 -->
<g id="node34" class="node">
<title>34</title>
<ellipse fill="#7570b3" stroke="#7570b3" cx="392.5177" cy="-254.0512" rx="18" ry="18"/>
<text text-anchor="middle" x="392.5177" y="-257.0512" font-family="Helvetica,sans-Serif" font-size="10.00" fill="#000000">ggplot2</text>
<text text-anchor="middle" x="392.5177" y="-245.0512" font-family="Helvetica,sans-Serif" font-size="10.00" fill="#000000">2507</text>
</g>
<!-- 35 -->
<g id="node35" class="node">
<title>35</title>
<ellipse fill="#d95f02" stroke="#d95f02" cx="652.1421" cy="-48.077" rx="18" ry="18"/>
<text text-anchor="middle" x="652.1421" y="-51.077" font-family="Helvetica,sans-Serif" font-size="10.00" fill="#000000">jsonlite</text>
<text text-anchor="middle" x="652.1421" y="-39.077" font-family="Helvetica,sans-Serif" font-size="10.00" fill="#000000">2399</text>
</g>
<!-- 36 -->
<g id="node36" class="node">
<title>36</title>
<ellipse fill="#1b9e77" stroke="#1b9e77" cx="692.3793" cy="-695.8528" rx="18" ry="18"/>
<text text-anchor="middle" x="692.3793" y="-698.8528" font-family="Helvetica,sans-Serif" font-size="10.00" fill="#000000">mime</text>
<text text-anchor="middle" x="692.3793" y="-686.8528" font-family="Helvetica,sans-Serif" font-size="10.00" fill="#000000">2142</text>
</g>
<!-- 37 -->
<g id="node37" class="node">
<title>37</title>
<ellipse fill="#e7298a" stroke="#e7298a" cx="134.3143" cy="-263.3782" rx="18" ry="18"/>
<text text-anchor="middle" x="134.3143" y="-266.3782" font-family="Helvetica,sans-Serif" font-size="10.00" fill="#000000">purrr</text>
<text text-anchor="middle" x="134.3143" y="-254.3782" font-family="Helvetica,sans-Serif" font-size="10.00" fill="#000000">1820</text>
</g>
<!-- 38 -->
<g id="node38" class="node">
<title>38</title>
<ellipse fill="#d95f02" stroke="#d95f02" cx="18" cy="-358.2921" rx="18" ry="18"/>
<text text-anchor="middle" x="18" y="-361.2921" font-family="Helvetica,sans-Serif" font-size="10.00" fill="#000000">plogr</text>
<text text-anchor="middle" x="18" y="-349.2921" font-family="Helvetica,sans-Serif" font-size="10.00" fill="#000000">1745</text>
</g>
<!-- 39 -->
<g id="node39" class="node">
<title>39</title>
<ellipse fill="#e7298a" stroke="#e7298a" cx="205.7954" cy="-259.8007" rx="18" ry="18"/>
<text text-anchor="middle" x="205.7954" y="-262.8007" font-family="Helvetica,sans-Serif" font-size="10.00" fill="#000000">tidyselect</text>
<text text-anchor="middle" x="205.7954" y="-250.8007" font-family="Helvetica,sans-Serif" font-size="10.00" fill="#000000">1684</text>
</g>
<!-- 40 -->
<g id="node40" class="node">
<title>40</title>
<ellipse fill="#7570b3" stroke="#7570b3" cx="150.3644" cy="-324.3722" rx="18" ry="18"/>
<text text-anchor="middle" x="150.3644" y="-327.3722" font-family="Helvetica,sans-Serif" font-size="10.00" fill="#000000">dplyr</text>
<text text-anchor="middle" x="150.3644" y="-315.3722" font-family="Helvetica,sans-Serif" font-size="10.00" fill="#000000">1671</text>
</g>
<!-- 41 -->
<g id="node41" class="node">
<title>41</title>
<ellipse fill="#1b9e77" stroke="#1b9e77" cx="629.3647" cy="-781.722" rx="18" ry="18"/>
<text text-anchor="middle" x="629.3647" y="-784.722" font-family="Helvetica,sans-Serif" font-size="10.00" fill="#000000">curl</text>
<text text-anchor="middle" x="629.3647" y="-772.722" font-family="Helvetica,sans-Serif" font-size="10.00" fill="#000000">1647</text>
</g>
<!-- 42 -->
<g id="node42" class="node">
<title>42</title>
<ellipse fill="#e7298a" stroke="#e7298a" cx="493.1893" cy="-198.7618" rx="18" ry="18"/>
<text text-anchor="middle" x="493.1893" y="-201.7618" font-family="Helvetica,sans-Serif" font-size="10.00" fill="#000000">htmltools</text>
<text text-anchor="middle" x="493.1893" y="-189.7618" font-family="Helvetica,sans-Serif" font-size="10.00" fill="#000000">1464</text>
</g>
<!-- 43 -->
<g id="node43" class="node">
<title>43</title>
<ellipse fill="#1b9e77" stroke="#1b9e77" cx="546.0077" cy="-727.1812" rx="18" ry="18"/>
<text text-anchor="middle" x="546.0077" y="-730.1812" font-family="Helvetica,sans-Serif" font-size="10.00" fill="#000000">data.table</text>
<text text-anchor="middle" x="546.0077" y="-718.1812" font-family="Helvetica,sans-Serif" font-size="10.00" fill="#000000">1418</text>
</g>
<!-- 44 -->
<g id="node44" class="node">
<title>44</title>
<ellipse fill="#1b9e77" stroke="#1b9e77" cx="407.9228" cy="-745.4012" rx="18" ry="18"/>
<text text-anchor="middle" x="407.9228" y="-748.4012" font-family="Helvetica,sans-Serif" font-size="10.00" fill="#000000">codetools</text>
<text text-anchor="middle" x="407.9228" y="-736.4012" font-family="Helvetica,sans-Serif" font-size="10.00" fill="#000000">1383</text>
</g>
<!-- 45 -->
<g id="node45" class="node">
<title>45</title>
<ellipse fill="#d95f02" stroke="#d95f02" cx="710.7144" cy="-130.6724" rx="18" ry="18"/>
<text text-anchor="middle" x="710.7144" y="-133.6724" font-family="Helvetica,sans-Serif" font-size="10.00" fill="#000000">yaml</text>
<text text-anchor="middle" x="710.7144" y="-121.6724" font-family="Helvetica,sans-Serif" font-size="10.00" fill="#000000">1366</text>
</g>
<!-- 46 -->
<g id="node46" class="node">
<title>46</title>
<ellipse fill="#7570b3" stroke="#7570b3" cx="723.4161" cy="-495.4451" rx="18" ry="18"/>
<text text-anchor="middle" x="723.4161" y="-498.4451" font-family="Helvetica,sans-Serif" font-size="10.00" fill="#000000">survival</text>
<text text-anchor="middle" x="723.4161" y="-486.4451" font-family="Helvetica,sans-Serif" font-size="10.00" fill="#000000">1340</text>
</g>
<!-- 47 -->
<g id="node47" class="node">
<title>47</title>
<ellipse fill="#1b9e77" stroke="#1b9e77" cx="503.4735" cy="-827.9067" rx="18" ry="18"/>
<text text-anchor="middle" x="503.4735" y="-830.9067" font-family="Helvetica,sans-Serif" font-size="10.00" fill="#000000">mvtnorm</text>
<text text-anchor="middle" x="503.4735" y="-818.9067" font-family="Helvetica,sans-Serif" font-size="10.00" fill="#000000">1279</text>
</g>
<!-- 48 -->
<g id="node48" class="node">
<title>48</title>
<ellipse fill="#7570b3" stroke="#7570b3" cx="823.9853" cy="-316.9104" rx="18" ry="18"/>
<text text-anchor="middle" x="823.9853" y="-319.9104" font-family="Helvetica,sans-Serif" font-size="10.00" fill="#000000">sp</text>
<text text-anchor="middle" x="823.9853" y="-307.9104" font-family="Helvetica,sans-Serif" font-size="10.00" fill="#000000">1074</text>
</g>
<!-- 49 -->
<g id="node49" class="node">
<title>49</title>
<ellipse fill="#7570b3" stroke="#7570b3" cx="824.9166" cy="-439.6503" rx="18" ry="18"/>
<text text-anchor="middle" x="824.9166" y="-442.6503" font-family="Helvetica,sans-Serif" font-size="10.00" fill="#000000">zoo</text>
<text text-anchor="middle" x="824.9166" y="-430.6503" font-family="Helvetica,sans-Serif" font-size="10.00" fill="#000000">1060</text>
</g>
<!-- 50 -->
<g id="node50" class="node">
<title>50</title>
<ellipse fill="#1b9e77" stroke="#1b9e77" cx="770.4398" cy="-625.4709" rx="18" ry="18"/>
<text text-anchor="middle" x="770.4398" y="-628.4709" font-family="Helvetica,sans-Serif" font-size="10.00" fill="#000000">base64enc</text>
<text text-anchor="middle" x="770.4398" y="-616.4709" font-family="Helvetica,sans-Serif" font-size="10.00" fill="#000000">1042</text>
</g>
<!-- 51 -->
<g id="node51" class="node">
<title>51</title>
<ellipse fill="#1b9e77" stroke="#1b9e77" cx="386.852" cy="-847.4874" rx="18" ry="18"/>
<text text-anchor="middle" x="386.852" y="-850.4874" font-family="Helvetica,sans-Serif" font-size="10.00" fill="#000000">xtable</text>
<text text-anchor="middle" x="386.852" y="-838.4874" font-family="Helvetica,sans-Serif" font-size="10.00" fill="#000000">1034</text>
</g>
<!-- 52 -->
<g id="node52" class="node">
<title>52</title>
<ellipse fill="#d95f02" stroke="#d95f02" cx="280.3103" cy="-806.3891" rx="18" ry="18"/>
<text text-anchor="middle" x="280.3103" y="-809.3891" font-family="Helvetica,sans-Serif" font-size="10.00" fill="#000000">sys</text>
<text text-anchor="middle" x="280.3103" y="-797.3891" font-family="Helvetica,sans-Serif" font-size="10.00" fill="#000000">1021</text>
</g>
<!-- 53 -->
<g id="node53" class="node">
<title>53</title>
<ellipse fill="#7570b3" stroke="#7570b3" cx="619.0356" cy="-125.9074" rx="18" ry="18"/>
<text text-anchor="middle" x="619.0356" y="-128.9074" font-family="Helvetica,sans-Serif" font-size="10.00" fill="#000000">htmlwidgets</text>
<text text-anchor="middle" x="619.0356" y="-116.9074" font-family="Helvetica,sans-Serif" font-size="10.00" fill="#000000">1018</text>
</g>
<!-- 54 -->
<g id="node54" class="node">
<title>54</title>
<ellipse fill="#e7298a" stroke="#e7298a" cx="215.5465" cy="-791.6915" rx="18" ry="18"/>
<text text-anchor="middle" x="215.5465" y="-794.6915" font-family="Helvetica,sans-Serif" font-size="10.00" fill="#000000">askpass</text>
<text text-anchor="middle" x="215.5465" y="-782.6915" font-family="Helvetica,sans-Serif" font-size="10.00" fill="#000000">1014</text>
</g>
<!-- 55 -->
<g id="node55" class="node">
<title>55</title>
<ellipse fill="#7570b3" stroke="#7570b3" cx="148.9763" cy="-772.5571" rx="18" ry="18"/>
<text text-anchor="middle" x="148.9763" y="-775.5571" font-family="Helvetica,sans-Serif" font-size="10.00" fill="#000000">openssl</text>
<text text-anchor="middle" x="148.9763" y="-763.5571" font-family="Helvetica,sans-Serif" font-size="10.00" fill="#000000">1004</text>
</g>
</g>
</svg>

