<?xml version="1.0" encoding="UTF-8" standalone="no"?>
<!DOCTYPE svg PUBLIC "-//W3C//DTD SVG 1.1//EN"
 "http://www.w3.org/Graphics/SVG/1.1/DTD/svg11.dtd">
<!-- Generated by graphviz version 2.40.1 (20161225.0304)
 -->
<!-- Title: %0 Pages: 1 -->
<svg width="895pt" height="857pt"
 viewBox="0.00 0.00 895.45 857.16" xmlns="http://www.w3.org/2000/svg" xmlns:xlink="http://www.w3.org/1999/xlink">
<g id="graph0" class="graph" transform="scale(1 1) rotate(0) translate(4 853.1634)">
<title>%0</title>
<polygon fill="#ffffff" stroke="transparent" points="-4,4 -4,-853.1634 891.4537,-853.1634 891.4537,4 -4,4"/>
<!-- 1&#45;&gt;21 -->
<g id="edge43" class="edge">
<title>1&#45;&gt;21</title>
<path fill="none" stroke="#cccccc" d="M318.7829,-310.6224C310.2575,-317.9111 299.2016,-327.3631 289.9892,-335.239"/>
<polygon fill="#cccccc" stroke="#cccccc" points="288.8299,-333.9278 286.1667,-338.5071 291.1043,-336.5881 288.8299,-333.9278"/>
</g>
<!-- 1&#45;&gt;27 -->
<g id="edge47" class="edge">
<title>1&#45;&gt;27</title>
<path fill="none" stroke="#cccccc" d="M314.4906,-295.8107C301.7785,-293.623 284.6272,-290.6712 270.8793,-288.3052"/>
<polygon fill="#cccccc" stroke="#cccccc" points="270.8272,-286.5206 265.6028,-287.3971 270.2335,-289.9699 270.8272,-286.5206"/>
</g>
<!-- 1&#45;&gt;32 -->
<g id="edge53" class="edge">
<title>1&#45;&gt;32</title>
<path fill="none" stroke="#cccccc" d="M315.2336,-304.1364C286.3132,-312.9017 228.0927,-330.5474 196.2095,-340.2107"/>
<polygon fill="#cccccc" stroke="#cccccc" points="195.6045,-338.5654 191.3271,-341.6905 196.6198,-341.9149 195.6045,-338.5654"/>
</g>
<!-- 1&#45;&gt;39 -->
<g id="edge68" class="edge">
<title>1&#45;&gt;39</title>
<path fill="none" stroke="#cccccc" d="M333.9372,-280.9207C335.3269,-263.7021 337.4303,-237.6411 338.946,-218.8627"/>
<polygon fill="#cccccc" stroke="#cccccc" points="340.6988,-218.8973 339.3568,-213.7727 337.2101,-218.6157 340.6988,-218.8973"/>
</g>
<!-- 1&#45;&gt;40 -->
<g id="edge11" class="edge">
<title>1&#45;&gt;40</title>
<path fill="none" stroke="#cccccc" d="M338.9288,-281.8871C348.9884,-255.3136 368.4161,-203.9935 379.4776,-174.7736"/>
<polygon fill="#cccccc" stroke="#cccccc" points="381.1763,-175.2291 381.3099,-169.9334 377.903,-173.9899 381.1763,-175.2291"/>
</g>
<!-- 1&#45;&gt;42 -->
<g id="edge28" class="edge">
<title>1&#45;&gt;42</title>
<path fill="none" stroke="#cccccc" d="M346.7526,-310.3459C372.9385,-331.3398 428.6298,-375.9888 457.5423,-399.1687"/>
<polygon fill="#cccccc" stroke="#cccccc" points="456.6114,-400.6653 461.6071,-402.4276 458.8007,-397.9346 456.6114,-400.6653"/>
</g>
<!-- 2&#45;&gt;3 -->
<g id="edge32" class="edge">
<title>2&#45;&gt;3</title>
<path fill="none" stroke="#cccccc" d="M323.3076,-757.0003C311.4671,-746.6232 294.3097,-731.5864 281.4875,-720.349"/>
<polygon fill="#cccccc" stroke="#cccccc" points="282.5718,-718.9723 277.658,-716.9929 280.2649,-721.6045 282.5718,-718.9723"/>
</g>
<!-- 2&#45;&gt;19 -->
<g id="edge36" class="edge">
<title>2&#45;&gt;19</title>
<path fill="none" stroke="#cccccc" d="M342.1559,-751.4558C345.238,-740.83 349.1972,-727.1808 352.5083,-715.7656"/>
<polygon fill="#cccccc" stroke="#cccccc" points="354.2663,-715.9865 353.9786,-710.6968 350.9049,-715.0114 354.2663,-715.9865"/>
</g>
<!-- 2&#45;&gt;48 -->
<g id="edge55" class="edge">
<title>2&#45;&gt;48</title>
<path fill="none" stroke="#cccccc" d="M327.5429,-784.4016C322.5863,-792.4043 316.4605,-802.2946 311.121,-810.9153"/>
<polygon fill="#cccccc" stroke="#cccccc" points="309.393,-810.3818 308.2479,-815.554 312.3685,-812.2248 309.393,-810.3818"/>
</g>
<!-- 2&#45;&gt;49 -->
<g id="edge70" class="edge">
<title>2&#45;&gt;49</title>
<path fill="none" stroke="#cccccc" d="M352.6945,-777.9897C363.6694,-784.2644 378.4508,-792.7155 390.3592,-799.524"/>
<polygon fill="#cccccc" stroke="#cccccc" points="389.7248,-801.177 394.934,-802.1395 391.462,-798.1386 389.7248,-801.177"/>
</g>
<!-- 3&#45;&gt;22 -->
<g id="edge33" class="edge">
<title>3&#45;&gt;22</title>
<path fill="none" stroke="#cccccc" d="M271.2866,-688.3963C279.4264,-669.9143 292.5997,-640.0033 301.4684,-619.8662"/>
<polygon fill="#cccccc" stroke="#cccccc" points="303.0998,-620.5037 303.5135,-615.2225 299.8966,-619.093 303.0998,-620.5037"/>
</g>
<!-- 3&#45;&gt;46 -->
<g id="edge59" class="edge">
<title>3&#45;&gt;46</title>
<path fill="none" stroke="#cccccc" d="M246.4109,-710.5123C233.3681,-714.6057 215.4834,-720.2187 201.4434,-724.6251"/>
<polygon fill="#cccccc" stroke="#cccccc" points="200.7073,-723.0219 196.4608,-726.1889 201.7554,-726.3613 200.7073,-723.0219"/>
</g>
<!-- 4&#45;&gt;18 -->
<g id="edge57" class="edge">
<title>4&#45;&gt;18</title>
<path fill="none" stroke="#cccccc" d="M277.0622,-83.3286C261.5251,-94.9177 236.8234,-113.3427 219.8664,-125.9909"/>
<polygon fill="#cccccc" stroke="#cccccc" points="218.6941,-124.6821 215.7325,-129.0744 220.7867,-127.4876 218.6941,-124.6821"/>
</g>
<!-- 4&#45;&gt;37 -->
<g id="edge44" class="edge">
<title>4&#45;&gt;37</title>
<path fill="none" stroke="#cccccc" d="M306.4216,-83.0829C316.5549,-90.3015 330.0674,-99.9273 340.9876,-107.7066"/>
<polygon fill="#cccccc" stroke="#cccccc" points="340.0977,-109.2212 345.1854,-110.6969 342.1284,-106.3705 340.0977,-109.2212"/>
</g>
<!-- 4&#45;&gt;40 -->
<g id="edge7" class="edge">
<title>4&#45;&gt;40</title>
<path fill="none" stroke="#cccccc" d="M305.7585,-84.3855C322.7543,-98.6194 351.2482,-122.4829 369.761,-137.9873"/>
<polygon fill="#cccccc" stroke="#cccccc" points="368.8239,-139.4851 373.7808,-141.3538 371.0712,-136.8018 368.8239,-139.4851"/>
</g>
<!-- 5&#45;&gt;34 -->
<g id="edge18" class="edge">
<title>5&#45;&gt;34</title>
<path fill="none" stroke="#cccccc" d="M321.7357,-500.2443C321.3096,-481.7905 320.6526,-453.3358 320.1906,-433.3247"/>
<polygon fill="#cccccc" stroke="#cccccc" points="321.9367,-433.1337 320.0717,-428.1755 318.4377,-433.2146 321.9367,-433.1337"/>
</g>
<!-- 6&#45;&gt;32 -->
<g id="edge51" class="edge">
<title>6&#45;&gt;32</title>
<path fill="none" stroke="#cccccc" d="M230.4055,-237.2223C218.7237,-259.9786 197.4558,-301.4086 184.6661,-326.323"/>
<polygon fill="#cccccc" stroke="#cccccc" points="183.1075,-325.5273 182.3809,-330.7747 186.2212,-327.1258 183.1075,-325.5273"/>
</g>
<!-- 6&#45;&gt;40 -->
<g id="edge10" class="edge">
<title>6&#45;&gt;40</title>
<path fill="none" stroke="#cccccc" d="M255.2357,-213.4849C282.4204,-201.0775 336.5636,-176.3659 366.5303,-162.6889"/>
<polygon fill="#cccccc" stroke="#cccccc" points="367.3023,-164.2602 371.1243,-160.5921 365.8491,-161.0762 367.3023,-164.2602"/>
</g>
<!-- 7&#45;&gt;16 -->
<g id="edge41" class="edge">
<title>7&#45;&gt;16</title>
<path fill="none" stroke="#cccccc" d="M432.3154,-249.458C460.3882,-248.8362 514.4641,-247.6386 545.5808,-246.9494"/>
<polygon fill="#cccccc" stroke="#cccccc" points="545.7813,-248.6955 550.7413,-246.8352 545.7037,-245.1964 545.7813,-248.6955"/>
</g>
<!-- 7&#45;&gt;17 -->
<g id="edge65" class="edge">
<title>7&#45;&gt;17</title>
<path fill="none" stroke="#cccccc" d="M432.2162,-251.9448C441.2594,-252.9943 452.3321,-254.2793 462.0351,-255.4054"/>
<polygon fill="#cccccc" stroke="#cccccc" points="462.0947,-257.174 467.2631,-256.0121 462.4982,-253.6973 462.0947,-257.174"/>
</g>
<!-- 7&#45;&gt;34 -->
<g id="edge22" class="edge">
<title>7&#45;&gt;34</title>
<path fill="none" stroke="#cccccc" d="M404.9964,-265.5064C387.8058,-294.6143 350.9242,-357.0638 331.7652,-389.5046"/>
<polygon fill="#cccccc" stroke="#cccccc" points="330.1073,-388.8705 329.0715,-394.0657 333.121,-390.6504 330.1073,-388.8705"/>
</g>
<!-- 7&#45;&gt;37 -->
<g id="edge45" class="edge">
<title>7&#45;&gt;37</title>
<path fill="none" stroke="#cccccc" d="M407.1479,-233.0456C397.4039,-209.9391 379.8648,-168.3479 369.1456,-142.9289"/>
<polygon fill="#cccccc" stroke="#cccccc" points="370.6524,-141.9981 367.097,-138.071 367.4274,-143.3581 370.6524,-141.9981"/>
</g>
<!-- 7&#45;&gt;39 -->
<g id="edge69" class="edge">
<title>7&#45;&gt;39</title>
<path fill="none" stroke="#cccccc" d="M399.7329,-239.1476C388.3191,-230.7195 372.318,-218.9041 359.8717,-209.7136"/>
<polygon fill="#cccccc" stroke="#cccccc" points="360.8606,-208.2685 355.7988,-206.7061 358.7815,-211.0841 360.8606,-208.2685"/>
</g>
<!-- 7&#45;&gt;40 -->
<g id="edge12" class="edge">
<title>7&#45;&gt;40</title>
<path fill="none" stroke="#cccccc" d="M409.3727,-232.0969C405.0353,-216.2624 398.6623,-192.9967 393.9511,-175.7979"/>
<polygon fill="#cccccc" stroke="#cccccc" points="395.5554,-175.0301 392.5465,-170.6701 392.1797,-175.9548 395.5554,-175.0301"/>
</g>
<!-- 8&#45;&gt;17 -->
<g id="edge64" class="edge">
<title>8&#45;&gt;17</title>
<path fill="none" stroke="#cccccc" d="M483.1769,-179.2143C483.6372,-194.9619 484.3042,-217.7808 484.8026,-234.8341"/>
<polygon fill="#cccccc" stroke="#cccccc" points="483.0561,-234.9805 484.9515,-239.9272 486.5546,-234.8782 483.0561,-234.9805"/>
</g>
<!-- 8&#45;&gt;40 -->
<g id="edge8" class="edge">
<title>8&#45;&gt;40</title>
<path fill="none" stroke="#cccccc" d="M464.339,-159.4074C449.2362,-158.1487 427.7024,-156.3541 411.3062,-154.9876"/>
<polygon fill="#cccccc" stroke="#cccccc" points="411.0876,-153.2134 405.9595,-154.542 410.7968,-156.7013 411.0876,-153.2134"/>
</g>
<!-- 9&#45;&gt;18 -->
<g id="edge56" class="edge">
<title>9&#45;&gt;18</title>
<path fill="none" stroke="#cccccc" d="M262.9686,-130.4484C251.5378,-132.1938 236.666,-134.4646 224.386,-136.3396"/>
<polygon fill="#cccccc" stroke="#cccccc" points="223.978,-134.6315 219.2995,-137.1163 224.5064,-138.0914 223.978,-134.6315"/>
</g>
<!-- 9&#45;&gt;39 -->
<g id="edge66" class="edge">
<title>9&#45;&gt;39</title>
<path fill="none" stroke="#cccccc" d="M293.1707,-141.436C302.4014,-151.9375 315.1941,-166.4915 325.2003,-177.8754"/>
<polygon fill="#cccccc" stroke="#cccccc" points="324.1335,-179.3125 328.7489,-181.9126 326.7624,-177.0018 324.1335,-179.3125"/>
</g>
<!-- 9&#45;&gt;40 -->
<g id="edge6" class="edge">
<title>9&#45;&gt;40</title>
<path fill="none" stroke="#cccccc" d="M298.6897,-131.8668C316.8259,-136.1765 345.1644,-142.9106 364.9826,-147.62"/>
<polygon fill="#cccccc" stroke="#cccccc" points="364.809,-149.3774 370.0781,-148.8309 365.6182,-145.9722 364.809,-149.3774"/>
</g>
<!-- 10&#45;&gt;12 -->
<g id="edge3" class="edge">
<title>10&#45;&gt;12</title>
<path fill="none" stroke="#cccccc" d="M597.7538,-194.352C594.2358,-190.3497 590.353,-185.9325 586.6727,-181.7457"/>
<polygon fill="#cccccc" stroke="#cccccc" points="587.9815,-180.584 583.366,-177.9839 585.3527,-182.8947 587.9815,-180.584"/>
</g>
<!-- 10&#45;&gt;16 -->
<g id="edge39" class="edge">
<title>10&#45;&gt;16</title>
<path fill="none" stroke="#cccccc" d="M596.6148,-220.7497C593.342,-223.8133 589.7935,-227.1349 586.3688,-230.3406"/>
<polygon fill="#cccccc" stroke="#cccccc" points="584.8838,-229.3336 582.4294,-234.0282 587.2756,-231.8888 584.8838,-229.3336"/>
</g>
<!-- 10&#45;&gt;17 -->
<g id="edge61" class="edge">
<title>10&#45;&gt;17</title>
<path fill="none" stroke="#cccccc" d="M593.1808,-214.9756C570.9067,-223.9002 531.5568,-239.6664 507.0894,-249.4698"/>
<polygon fill="#cccccc" stroke="#cccccc" points="506.3942,-247.863 502.4038,-251.3472 507.696,-251.1119 506.3942,-247.863"/>
</g>
<!-- 11&#45;&gt;12 -->
<g id="edge2" class="edge">
<title>11&#45;&gt;12</title>
<path fill="none" stroke="#cccccc" d="M527.1538,-103.2518C535.8112,-115.2124 548.1313,-132.2334 557.5676,-145.2701"/>
<polygon fill="#cccccc" stroke="#cccccc" points="556.2983,-146.5012 560.6477,-149.5254 559.1336,-144.449 556.2983,-146.5012"/>
</g>
<!-- 11&#45;&gt;40 -->
<g id="edge4" class="edge">
<title>11&#45;&gt;40</title>
<path fill="none" stroke="#cccccc" d="M500.271,-96.8139C476.9326,-108.4681 434.0309,-129.8915 408.4658,-142.6577"/>
<polygon fill="#cccccc" stroke="#cccccc" points="407.594,-141.1369 403.9026,-144.9364 409.1577,-144.2682 407.594,-141.1369"/>
</g>
<!-- 12&#45;&gt;16 -->
<g id="edge38" class="edge">
<title>12&#45;&gt;16</title>
<path fill="none" stroke="#cccccc" d="M570.8786,-182.5482C570.5628,-194.4527 570.1473,-210.1132 569.8068,-222.9485"/>
<polygon fill="#cccccc" stroke="#cccccc" points="568.0493,-223.2125 569.6659,-228.2572 571.548,-223.3054 568.0493,-223.2125"/>
</g>
<!-- 12&#45;&gt;17 -->
<g id="edge60" class="edge">
<title>12&#45;&gt;17</title>
<path fill="none" stroke="#cccccc" d="M559.0577,-177.7669C543.8801,-194.3443 518.0473,-222.5595 501.3806,-240.7633"/>
<polygon fill="#cccccc" stroke="#cccccc" points="499.8506,-239.8429 497.7649,-244.7125 502.4321,-242.2064 499.8506,-239.8429"/>
</g>
<!-- 13&#45;&gt;18 -->
<g id="edge58" class="edge">
<title>13&#45;&gt;18</title>
<path fill="none" stroke="#cccccc" d="M129.8755,-105.331C144.1204,-112.2237 164.7619,-122.2116 180.1879,-129.6759"/>
<polygon fill="#cccccc" stroke="#cccccc" points="179.532,-131.3025 184.795,-131.9051 181.0565,-128.152 179.532,-131.3025"/>
</g>
<!-- 14&#45;&gt;16 -->
<g id="edge42" class="edge">
<title>14&#45;&gt;16</title>
<path fill="none" stroke="#cccccc" d="M675.9459,-246.5147C653.9259,-246.4965 616.7738,-246.4659 592.6171,-246.446"/>
<polygon fill="#cccccc" stroke="#cccccc" points="592.3729,-244.6959 587.3714,-246.4417 592.3699,-248.1959 592.3729,-244.6959"/>
</g>
<!-- 15&#45;&gt;16 -->
<g id="edge40" class="edge">
<title>15&#45;&gt;16</title>
<path fill="none" stroke="#cccccc" d="M587.3918,-293.6627C584.4094,-285.9255 580.8333,-276.6482 577.6429,-268.3716"/>
<polygon fill="#cccccc" stroke="#cccccc" points="579.1464,-267.4062 575.7151,-263.3702 575.8806,-268.6651 579.1464,-267.4062"/>
</g>
<!-- 15&#45;&gt;17 -->
<g id="edge62" class="edge">
<title>15&#45;&gt;17</title>
<path fill="none" stroke="#cccccc" d="M577.4174,-302.5424C558.366,-293.3382 526.9654,-278.1677 506.2526,-268.1608"/>
<polygon fill="#cccccc" stroke="#cccccc" points="507.0098,-266.5831 501.7464,-265.9837 505.4872,-269.7346 507.0098,-266.5831"/>
</g>
<!-- 16&#45;&gt;17 -->
<g id="edge63" class="edge">
<title>16&#45;&gt;17</title>
<path fill="none" stroke="#cccccc" d="M551.0222,-248.9654C538.5431,-250.7098 521.8742,-253.0398 508.4701,-254.9135"/>
<polygon fill="#cccccc" stroke="#cccccc" points="508.0318,-253.2077 503.3222,-255.6331 508.5164,-256.674 508.0318,-253.2077"/>
</g>
<!-- 17&#45;&gt;34 -->
<g id="edge24" class="edge">
<title>17&#45;&gt;34</title>
<path fill="none" stroke="#cccccc" d="M472.1931,-270.2995C442.3556,-297.6283 370.0662,-363.8396 336.8567,-394.2567"/>
<polygon fill="#cccccc" stroke="#cccccc" points="335.5112,-393.116 333.006,-397.7837 337.8752,-395.697 335.5112,-393.116"/>
</g>
<!-- 17&#45;&gt;40 -->
<g id="edge13" class="edge">
<title>17&#45;&gt;40</title>
<path fill="none" stroke="#cccccc" d="M473.1007,-244.815C455.3959,-225.7821 422.8501,-190.795 403.4561,-169.9462"/>
<polygon fill="#cccccc" stroke="#cccccc" points="404.6813,-168.6939 399.9944,-166.2248 402.1186,-171.0777 404.6813,-168.6939"/>
</g>
<!-- 18&#45;&gt;27 -->
<g id="edge48" class="edge">
<title>18&#45;&gt;27</title>
<path fill="none" stroke="#cccccc" d="M206.8519,-157.2931C215.2781,-183.5357 231.2237,-233.1969 240.4829,-262.0337"/>
<polygon fill="#cccccc" stroke="#cccccc" points="238.8251,-262.5952 242.02,-266.8208 242.1575,-261.5252 238.8251,-262.5952"/>
</g>
<!-- 19&#45;&gt;22 -->
<g id="edge34" class="edge">
<title>19&#45;&gt;22</title>
<path fill="none" stroke="#cccccc" d="M350.644,-676.7463C342.5443,-660.8978 330.2596,-636.8606 321.4685,-619.6592"/>
<polygon fill="#cccccc" stroke="#cccccc" points="322.9217,-618.6572 319.088,-615.0013 319.8051,-620.25 322.9217,-618.6572"/>
</g>
<!-- 20&#45;&gt;34 -->
<g id="edge15" class="edge">
<title>20&#45;&gt;34</title>
<path fill="none" stroke="#cccccc" d="M408.0706,-447.6874C389.9482,-439.9658 361.1361,-427.6897 341.3575,-419.2625"/>
<polygon fill="#cccccc" stroke="#cccccc" points="341.8215,-417.5581 336.5356,-417.2081 340.4495,-420.778 341.8215,-417.5581"/>
</g>
<!-- 20&#45;&gt;42 -->
<g id="edge27" class="edge">
<title>20&#45;&gt;42</title>
<path fill="none" stroke="#cccccc" d="M439.1522,-443.456C444.8794,-438.8266 451.5624,-433.4247 457.6423,-428.5101"/>
<polygon fill="#cccccc" stroke="#cccccc" points="458.9476,-429.7053 461.7361,-425.2011 456.7474,-426.9833 458.9476,-429.7053"/>
</g>
<!-- 21&#45;&gt;27 -->
<g id="edge46" class="edge">
<title>21&#45;&gt;27</title>
<path fill="none" stroke="#cccccc" d="M265.7988,-333.4781C262.7407,-325.1996 259.0299,-315.1542 255.7614,-306.3062"/>
<polygon fill="#cccccc" stroke="#cccccc" points="257.3722,-305.6165 253.998,-301.5327 254.0891,-306.8293 257.3722,-305.6165"/>
</g>
<!-- 21&#45;&gt;34 -->
<g id="edge20" class="edge">
<title>21&#45;&gt;34</title>
<path fill="none" stroke="#cccccc" d="M283.3687,-364.6299C289.7887,-372.6601 297.9093,-382.8177 304.8396,-391.4863"/>
<polygon fill="#cccccc" stroke="#cccccc" points="303.6444,-392.7938 308.1335,-395.6064 306.3782,-390.6082 303.6444,-392.7938"/>
</g>
<!-- 22&#45;&gt;34 -->
<g id="edge19" class="edge">
<title>22&#45;&gt;34</title>
<path fill="none" stroke="#cccccc" d="M311.626,-580.6398C313.2434,-546.2585 316.7586,-471.5302 318.5521,-433.4053"/>
<polygon fill="#cccccc" stroke="#cccccc" points="320.3168,-433.1318 318.8038,-428.0551 316.8207,-432.9673 320.3168,-433.1318"/>
</g>
<!-- 23&#45;&gt;40 -->
<g id="edge5" class="edge">
<title>23&#45;&gt;40</title>
<path fill="none" stroke="#cccccc" d="M442.545,-50.1767C431.2044,-71.4471 411.1699,-109.0239 398.7125,-132.3889"/>
<polygon fill="#cccccc" stroke="#cccccc" points="397.1351,-131.6279 396.3269,-136.8633 400.2236,-133.2746 397.1351,-131.6279"/>
</g>
<!-- 24&#45;&gt;32 -->
<g id="edge52" class="edge">
<title>24&#45;&gt;32</title>
<path fill="none" stroke="#cccccc" d="M82.5118,-303.1229C101.3018,-312.1071 132.1504,-326.8569 152.7867,-336.7238"/>
<polygon fill="#cccccc" stroke="#cccccc" points="152.2756,-338.4192 157.5415,-338.9973 153.7855,-335.2616 152.2756,-338.4192"/>
</g>
<!-- 25&#45;&gt;31 -->
<g id="edge35" class="edge">
<title>25&#45;&gt;31</title>
<path fill="none" stroke="#cccccc" d="M27.6562,-513.5706C35.6238,-500.9634 46.9842,-482.9879 55.6342,-469.3011"/>
<polygon fill="#cccccc" stroke="#cccccc" points="57.263,-469.9995 58.4549,-464.8379 54.3043,-468.1296 57.263,-469.9995"/>
</g>
<!-- 26&#45;&gt;34 -->
<g id="edge26" class="edge">
<title>26&#45;&gt;34</title>
<path fill="none" stroke="#cccccc" d="M380.8494,-502.4455C368.1,-483.189 346.3115,-450.28 332.4654,-429.3671"/>
<polygon fill="#cccccc" stroke="#cccccc" points="333.8569,-428.2988 329.6375,-425.0958 330.9386,-430.231 333.8569,-428.2988"/>
</g>
<!-- 27&#45;&gt;34 -->
<g id="edge21" class="edge">
<title>27&#45;&gt;34</title>
<path fill="none" stroke="#cccccc" d="M256.6094,-299.9717C269.6015,-322.6496 293.6577,-364.6403 308.003,-389.6803"/>
<polygon fill="#cccccc" stroke="#cccccc" points="306.5597,-390.6815 310.5637,-394.15 309.5966,-388.9416 306.5597,-390.6815"/>
</g>
<!-- 28&#45;&gt;32 -->
<g id="edge54" class="edge">
<title>28&#45;&gt;32</title>
<path fill="none" stroke="#cccccc" d="M191.2866,-402.9394C188.1723,-392.789 184.2131,-379.8852 180.8796,-369.0205"/>
<polygon fill="#cccccc" stroke="#cccccc" points="182.537,-368.456 179.3973,-364.1893 179.1909,-369.4827 182.537,-368.456"/>
</g>
<!-- 28&#45;&gt;34 -->
<g id="edge25" class="edge">
<title>28&#45;&gt;34</title>
<path fill="none" stroke="#cccccc" d="M214.7788,-418.8172C236.4035,-417.0021 272.5744,-413.9661 296.2735,-411.9769"/>
<polygon fill="#cccccc" stroke="#cccccc" points="296.5888,-413.7066 301.4249,-411.5445 296.296,-410.2189 296.5888,-413.7066"/>
</g>
<!-- 29&#45;&gt;34 -->
<g id="edge17" class="edge">
<title>29&#45;&gt;34</title>
<path fill="none" stroke="#cccccc" d="M220.397,-495.2105C240.8369,-477.6659 279.0588,-444.8581 301.6406,-425.4749"/>
<polygon fill="#cccccc" stroke="#cccccc" points="303.0131,-426.6032 305.6673,-422.0186 300.7335,-423.9473 303.0131,-426.6032"/>
</g>
<!-- 30&#45;&gt;32 -->
<g id="edge49" class="edge">
<title>30&#45;&gt;32</title>
<path fill="none" stroke="#cccccc" d="M73.7858,-362.2948C94.3661,-359.1389 128.1539,-353.9578 150.7563,-350.4919"/>
<polygon fill="#cccccc" stroke="#cccccc" points="151.2872,-352.181 155.9641,-349.6933 150.7566,-348.7214 151.2872,-352.181"/>
</g>
<!-- 31&#45;&gt;32 -->
<g id="edge50" class="edge">
<title>31&#45;&gt;32</title>
<path fill="none" stroke="#cccccc" d="M81.081,-437.0136C100.2359,-418.4589 136.0548,-383.7624 157.217,-363.2633"/>
<polygon fill="#cccccc" stroke="#cccccc" points="158.6168,-364.3438 160.9906,-359.608 156.1816,-361.8298 158.6168,-364.3438"/>
</g>
<!-- 32&#45;&gt;34 -->
<g id="edge23" class="edge">
<title>32&#45;&gt;34</title>
<path fill="none" stroke="#cccccc" d="M190.7936,-354.1514C217.1942,-365.5966 268.5768,-387.8721 297.8519,-400.5635"/>
<polygon fill="#cccccc" stroke="#cccccc" points="297.4181,-402.2828 302.7017,-402.666 298.8103,-399.0716 297.4181,-402.2828"/>
</g>
<!-- 33&#45;&gt;34 -->
<g id="edge16" class="edge">
<title>33&#45;&gt;34</title>
<path fill="none" stroke="#cccccc" d="M270.4429,-481.946C280.4402,-467.3326 295.6029,-445.1687 306.4535,-429.3079"/>
<polygon fill="#cccccc" stroke="#cccccc" points="308.0129,-430.1278 309.3917,-425.013 305.1242,-428.1516 308.0129,-430.1278"/>
</g>
<!-- 35&#45;&gt;53 -->
<g id="edge30" class="edge">
<title>35&#45;&gt;53</title>
<path fill="none" stroke="#cccccc" d="M610.4677,-578.0922C605.8501,-563.7877 599.2662,-543.3919 594.2531,-527.8623"/>
<polygon fill="#cccccc" stroke="#cccccc" points="595.8198,-527.0187 592.6183,-522.7981 592.489,-528.094 595.8198,-527.0187"/>
</g>
<!-- 37&#45;&gt;39 -->
<g id="edge67" class="edge">
<title>37&#45;&gt;39</title>
<path fill="none" stroke="#cccccc" d="M355.4586,-138.8838C352.8065,-149.1674 349.4349,-162.2404 346.5962,-173.2477"/>
<polygon fill="#cccccc" stroke="#cccccc" points="344.888,-172.8637 345.3339,-178.1423 348.2771,-173.7378 344.888,-172.8637"/>
</g>
<!-- 38&#45;&gt;40 -->
<g id="edge9" class="edge">
<title>38&#45;&gt;40</title>
<path fill="none" stroke="#cccccc" d="M383.8774,-36.2096C384.6705,-60.3687 386.0716,-103.0487 386.9428,-129.5868"/>
<polygon fill="#cccccc" stroke="#cccccc" points="385.1964,-129.7291 387.1096,-134.669 388.6946,-129.6142 385.1964,-129.7291"/>
</g>
<!-- 39&#45;&gt;40 -->
<g id="edge14" class="edge">
<title>39&#45;&gt;40</title>
<path fill="none" stroke="#cccccc" d="M354.383,-183.3168C359.3837,-178.7712 365.1186,-173.5584 370.4054,-168.7527"/>
<polygon fill="#cccccc" stroke="#cccccc" points="371.8185,-169.8332 374.3413,-165.175 369.4643,-167.2432 371.8185,-169.8332"/>
</g>
<!-- 42&#45;&gt;53 -->
<g id="edge29" class="edge">
<title>42&#45;&gt;53</title>
<path fill="none" stroke="#cccccc" d="M489.903,-425.4329C510.0436,-442.0375 547.067,-472.5608 569.1292,-490.7496"/>
<polygon fill="#cccccc" stroke="#cccccc" points="568.096,-492.1658 573.0672,-493.9961 570.3224,-489.4652 568.096,-492.1658"/>
</g>
<!-- 45&#45;&gt;53 -->
<g id="edge31" class="edge">
<title>45&#45;&gt;53</title>
<path fill="none" stroke="#cccccc" d="M658.741,-511.8514C644.8508,-510.624 625.6005,-508.9228 610.5433,-507.5922"/>
<polygon fill="#cccccc" stroke="#cccccc" points="610.338,-505.8173 605.2034,-507.1203 610.0299,-509.3037 610.338,-505.8173"/>
</g>
<!-- 52&#45;&gt;54 -->
<g id="edge1" class="edge">
<title>52&#45;&gt;54</title>
<path fill="none" stroke="#cccccc" d="M821.2405,-548.5781C818.4607,-556.1443 815.1554,-565.1407 812.1935,-573.2026"/>
<polygon fill="#cccccc" stroke="#cccccc" points="810.4831,-572.7836 810.4014,-578.0804 813.7684,-573.9906 810.4831,-572.7836"/>
</g>
<!-- 54&#45;&gt;55 -->
<g id="edge37" class="edge">
<title>54&#45;&gt;55</title>
<path fill="none" stroke="#cccccc" d="M794.888,-610.9392C790.9426,-617.6729 786.2893,-625.6146 782.1015,-632.7621"/>
<polygon fill="#cccccc" stroke="#cccccc" points="780.5824,-631.893 779.5646,-637.0918 783.6022,-633.6625 780.5824,-631.893"/>
</g>
<!-- 1 -->
<g id="node1" class="node">
<title>1</title>
<ellipse fill="#d95f02" stroke="#d95f02" cx="332.4855" cy="-298.9076" rx="18" ry="18"/>
<text text-anchor="middle" x="332.4855" y="-301.9076" font-family="Helvetica,sans-Serif" font-size="10.00" fill="#000000">Rcpp</text>
<text text-anchor="middle" x="332.4855" y="-289.9076" font-family="Helvetica,sans-Serif" font-size="10.00" fill="#000000">6337</text>
</g>
<!-- 2 -->
<g id="node2" class="node">
<title>2</title>
<ellipse fill="#d95f02" stroke="#d95f02" cx="337.0533" cy="-769.047" rx="18" ry="18"/>
<text text-anchor="middle" x="337.0533" y="-772.047" font-family="Helvetica,sans-Serif" font-size="10.00" fill="#000000">lattice</text>
<text text-anchor="middle" x="337.0533" y="-760.047" font-family="Helvetica,sans-Serif" font-size="10.00" fill="#000000">6045</text>
</g>
<!-- 3 -->
<g id="node3" class="node">
<title>3</title>
<ellipse fill="#e7298a" stroke="#e7298a" cx="263.974" cy="-705.0002" rx="18" ry="18"/>
<text text-anchor="middle" x="263.974" y="-708.0002" font-family="Helvetica,sans-Serif" font-size="10.00" fill="#000000">Matrix</text>
<text text-anchor="middle" x="263.974" y="-696.0002" font-family="Helvetica,sans-Serif" font-size="10.00" fill="#000000">5012</text>
</g>
<!-- 4 -->
<g id="node4" class="node">
<title>4</title>
<ellipse fill="#d95f02" stroke="#d95f02" cx="291.5728" cy="-72.5051" rx="18" ry="18"/>
<text text-anchor="middle" x="291.5728" y="-75.5051" font-family="Helvetica,sans-Serif" font-size="10.00" fill="#000000">magrittr</text>
<text text-anchor="middle" x="291.5728" y="-63.5051" font-family="Helvetica,sans-Serif" font-size="10.00" fill="#000000">4901</text>
</g>
<!-- 5 -->
<g id="node5" class="node">
<title>5</title>
<ellipse fill="#d95f02" stroke="#d95f02" cx="322.1612" cy="-518.6774" rx="18" ry="18"/>
<text text-anchor="middle" x="322.1612" y="-521.6774" font-family="Helvetica,sans-Serif" font-size="10.00" fill="#000000">MASS</text>
<text text-anchor="middle" x="322.1612" y="-509.6774" font-family="Helvetica,sans-Serif" font-size="10.00" fill="#000000">4617</text>
</g>
<!-- 6 -->
<g id="node6" class="node">
<title>6</title>
<ellipse fill="#d95f02" stroke="#d95f02" cx="238.7219" cy="-221.022" rx="18" ry="18"/>
<text text-anchor="middle" x="238.7219" y="-224.022" font-family="Helvetica,sans-Serif" font-size="10.00" fill="#000000">R6</text>
<text text-anchor="middle" x="238.7219" y="-212.022" font-family="Helvetica,sans-Serif" font-size="10.00" fill="#000000">4300</text>
</g>
<!-- 7 -->
<g id="node7" class="node">
<title>7</title>
<ellipse fill="#d95f02" stroke="#d95f02" cx="414.2379" cy="-249.8583" rx="18" ry="18"/>
<text text-anchor="middle" x="414.2379" y="-252.8583" font-family="Helvetica,sans-Serif" font-size="10.00" fill="#000000">rlang</text>
<text text-anchor="middle" x="414.2379" y="-240.8583" font-family="Helvetica,sans-Serif" font-size="10.00" fill="#000000">4017</text>
</g>
<!-- 8 -->
<g id="node8" class="node">
<title>8</title>
<ellipse fill="#d95f02" stroke="#d95f02" cx="482.6425" cy="-160.9328" rx="18" ry="18"/>
<text text-anchor="middle" x="482.6425" y="-163.9328" font-family="Helvetica,sans-Serif" font-size="10.00" fill="#000000">pkgconfig</text>
<text text-anchor="middle" x="482.6425" y="-151.9328" font-family="Helvetica,sans-Serif" font-size="10.00" fill="#000000">4005</text>
</g>
<!-- 9 -->
<g id="node9" class="node">
<title>9</title>
<ellipse fill="#d95f02" stroke="#d95f02" cx="281.0819" cy="-127.6827" rx="18" ry="18"/>
<text text-anchor="middle" x="281.0819" y="-130.6827" font-family="Helvetica,sans-Serif" font-size="10.00" fill="#000000">glue</text>
<text text-anchor="middle" x="281.0819" y="-118.6827" font-family="Helvetica,sans-Serif" font-size="10.00" fill="#000000">3971</text>
</g>
<!-- 10 -->
<g id="node10" class="node">
<title>10</title>
<ellipse fill="#d95f02" stroke="#d95f02" cx="609.9695" cy="-208.2489" rx="18" ry="18"/>
<text text-anchor="middle" x="609.9695" y="-211.2489" font-family="Helvetica,sans-Serif" font-size="10.00" fill="#000000">crayon</text>
<text text-anchor="middle" x="609.9695" y="-199.2489" font-family="Helvetica,sans-Serif" font-size="10.00" fill="#000000">3945</text>
</g>
<!-- 11 -->
<g id="node11" class="node">
<title>11</title>
<ellipse fill="#d95f02" stroke="#d95f02" cx="516.594" cy="-88.6628" rx="18" ry="18"/>
<text text-anchor="middle" x="516.594" y="-91.6628" font-family="Helvetica,sans-Serif" font-size="10.00" fill="#000000">assertthat</text>
<text text-anchor="middle" x="516.594" y="-79.6628" font-family="Helvetica,sans-Serif" font-size="10.00" fill="#000000">3880</text>
</g>
<!-- 12 -->
<g id="node12" class="node">
<title>12</title>
<ellipse fill="#e7298a" stroke="#e7298a" cx="571.3619" cy="-164.3278" rx="18" ry="18"/>
<text text-anchor="middle" x="571.3619" y="-167.3278" font-family="Helvetica,sans-Serif" font-size="10.00" fill="#000000">cli</text>
<text text-anchor="middle" x="571.3619" y="-155.3278" font-family="Helvetica,sans-Serif" font-size="10.00" fill="#000000">3718</text>
</g>
<!-- 13 -->
<g id="node13" class="node">
<title>13</title>
<ellipse fill="#d95f02" stroke="#d95f02" cx="113.3385" cy="-97.3292" rx="18" ry="18"/>
<text text-anchor="middle" x="113.3385" y="-100.3292" font-family="Helvetica,sans-Serif" font-size="10.00" fill="#000000">stringi</text>
<text text-anchor="middle" x="113.3385" y="-88.3292" font-family="Helvetica,sans-Serif" font-size="10.00" fill="#000000">3714</text>
</g>
<!-- 14 -->
<g id="node14" class="node">
<title>14</title>
<ellipse fill="#d95f02" stroke="#d95f02" cx="694.1115" cy="-246.5296" rx="18" ry="18"/>
<text text-anchor="middle" x="694.1115" y="-249.5296" font-family="Helvetica,sans-Serif" font-size="10.00" fill="#000000">utf8</text>
<text text-anchor="middle" x="694.1115" y="-237.5296" font-family="Helvetica,sans-Serif" font-size="10.00" fill="#000000">3613</text>
</g>
<!-- 15 -->
<g id="node15" class="node">
<title>15</title>
<ellipse fill="#d95f02" stroke="#d95f02" cx="593.8806" cy="-310.4963" rx="18" ry="18"/>
<text text-anchor="middle" x="593.8806" y="-313.4963" font-family="Helvetica,sans-Serif" font-size="10.00" fill="#000000">fansi</text>
<text text-anchor="middle" x="593.8806" y="-301.4963" font-family="Helvetica,sans-Serif" font-size="10.00" fill="#000000">3612</text>
</g>
<!-- 16 -->
<g id="node16" class="node">
<title>16</title>
<ellipse fill="#e7298a" stroke="#e7298a" cx="569.1839" cy="-246.4267" rx="18" ry="18"/>
<text text-anchor="middle" x="569.1839" y="-249.4267" font-family="Helvetica,sans-Serif" font-size="10.00" fill="#000000">pillar</text>
<text text-anchor="middle" x="569.1839" y="-237.4267" font-family="Helvetica,sans-Serif" font-size="10.00" fill="#000000">3610</text>
</g>
<!-- 17 -->
<g id="node17" class="node">
<title>17</title>
<ellipse fill="#e7298a" stroke="#e7298a" cx="485.4835" cy="-258.1266" rx="18" ry="18"/>
<text text-anchor="middle" x="485.4835" y="-261.1266" font-family="Helvetica,sans-Serif" font-size="10.00" fill="#000000">tibble</text>
<text text-anchor="middle" x="485.4835" y="-249.1266" font-family="Helvetica,sans-Serif" font-size="10.00" fill="#000000">3608</text>
</g>
<!-- 18 -->
<g id="node18" class="node">
<title>18</title>
<ellipse fill="#e7298a" stroke="#e7298a" cx="201.2578" cy="-139.871" rx="18" ry="18"/>
<text text-anchor="middle" x="201.2578" y="-142.871" font-family="Helvetica,sans-Serif" font-size="10.00" fill="#000000">stringr</text>
<text text-anchor="middle" x="201.2578" y="-130.871" font-family="Helvetica,sans-Serif" font-size="10.00" fill="#000000">3535</text>
</g>
<!-- 19 -->
<g id="node19" class="node">
<title>19</title>
<ellipse fill="#e7298a" stroke="#e7298a" cx="359.0535" cy="-693.201" rx="18" ry="18"/>
<text text-anchor="middle" x="359.0535" y="-696.201" font-family="Helvetica,sans-Serif" font-size="10.00" fill="#000000">nlme</text>
<text text-anchor="middle" x="359.0535" y="-684.201" font-family="Helvetica,sans-Serif" font-size="10.00" fill="#000000">3511</text>
</g>
<!-- 20 -->
<g id="node20" class="node">
<title>20</title>
<ellipse fill="#d95f02" stroke="#d95f02" cx="424.9958" cy="-454.8988" rx="18" ry="18"/>
<text text-anchor="middle" x="424.9958" y="-457.8988" font-family="Helvetica,sans-Serif" font-size="10.00" fill="#000000">digest</text>
<text text-anchor="middle" x="424.9958" y="-445.8988" font-family="Helvetica,sans-Serif" font-size="10.00" fill="#000000">3387</text>
</g>
<!-- 21 -->
<g id="node21" class="node">
<title>21</title>
<ellipse fill="#e7298a" stroke="#e7298a" cx="272.0993" cy="-350.5337" rx="18" ry="18"/>
<text text-anchor="middle" x="272.0993" y="-353.5337" font-family="Helvetica,sans-Serif" font-size="10.00" fill="#000000">plyr</text>
<text text-anchor="middle" x="272.0993" y="-341.5337" font-family="Helvetica,sans-Serif" font-size="10.00" fill="#000000">3108</text>
</g>
<!-- 22 -->
<g id="node22" class="node">
<title>22</title>
<ellipse fill="#e7298a" stroke="#e7298a" cx="310.7748" cy="-598.7352" rx="18" ry="18"/>
<text text-anchor="middle" x="310.7748" y="-601.7352" font-family="Helvetica,sans-Serif" font-size="10.00" fill="#000000">mgcv</text>
<text text-anchor="middle" x="310.7748" y="-589.7352" font-family="Helvetica,sans-Serif" font-size="10.00" fill="#000000">2976</text>
</g>
<!-- 23 -->
<g id="node23" class="node">
<title>23</title>
<ellipse fill="#d95f02" stroke="#d95f02" cx="451.0928" cy="-34.1445" rx="18" ry="18"/>
<text text-anchor="middle" x="451.0928" y="-37.1445" font-family="Helvetica,sans-Serif" font-size="10.00" fill="#000000">BH</text>
<text text-anchor="middle" x="451.0928" y="-25.1445" font-family="Helvetica,sans-Serif" font-size="10.00" fill="#000000">2832</text>
</g>
<!-- 24 -->
<g id="node24" class="node">
<title>24</title>
<ellipse fill="#d95f02" stroke="#d95f02" cx="66.1111" cy="-295.2812" rx="18" ry="18"/>
<text text-anchor="middle" x="66.1111" y="-298.2812" font-family="Helvetica,sans-Serif" font-size="10.00" fill="#000000">RColorBrewer</text>
<text text-anchor="middle" x="66.1111" y="-286.2812" font-family="Helvetica,sans-Serif" font-size="10.00" fill="#000000">2754</text>
</g>
<!-- 25 -->
<g id="node25" class="node">
<title>25</title>
<ellipse fill="#d95f02" stroke="#d95f02" cx="18" cy="-528.8496" rx="18" ry="18"/>
<text text-anchor="middle" x="18" y="-531.8496" font-family="Helvetica,sans-Serif" font-size="10.00" fill="#000000">colorspace</text>
<text text-anchor="middle" x="18" y="-519.8496" font-family="Helvetica,sans-Serif" font-size="10.00" fill="#000000">2709</text>
</g>
<!-- 26 -->
<g id="node26" class="node">
<title>26</title>
<ellipse fill="#d95f02" stroke="#d95f02" cx="391.0837" cy="-517.9034" rx="18" ry="18"/>
<text text-anchor="middle" x="391.0837" y="-520.9034" font-family="Helvetica,sans-Serif" font-size="10.00" fill="#000000">withr</text>
<text text-anchor="middle" x="391.0837" y="-508.9034" font-family="Helvetica,sans-Serif" font-size="10.00" fill="#000000">2689</text>
</g>
<!-- 27 -->
<g id="node27" class="node">
<title>27</title>
<ellipse fill="#e7298a" stroke="#e7298a" cx="247.6338" cy="-284.3047" rx="18" ry="18"/>
<text text-anchor="middle" x="247.6338" y="-287.3047" font-family="Helvetica,sans-Serif" font-size="10.00" fill="#000000">reshape2</text>
<text text-anchor="middle" x="247.6338" y="-275.3047" font-family="Helvetica,sans-Serif" font-size="10.00" fill="#000000">2681</text>
</g>
<!-- 28 -->
<g id="node28" class="node">
<title>28</title>
<ellipse fill="#d95f02" stroke="#d95f02" cx="196.6258" cy="-420.3409" rx="18" ry="18"/>
<text text-anchor="middle" x="196.6258" y="-423.3409" font-family="Helvetica,sans-Serif" font-size="10.00" fill="#000000">viridisLite</text>
<text text-anchor="middle" x="196.6258" y="-411.3409" font-family="Helvetica,sans-Serif" font-size="10.00" fill="#000000">2595</text>
</g>
<!-- 29 -->
<g id="node29" class="node">
<title>29</title>
<ellipse fill="#d95f02" stroke="#d95f02" cx="206.5254" cy="-507.1172" rx="18" ry="18"/>
<text text-anchor="middle" x="206.5254" y="-510.1172" font-family="Helvetica,sans-Serif" font-size="10.00" fill="#000000">lazyeval</text>
<text text-anchor="middle" x="206.5254" y="-498.1172" font-family="Helvetica,sans-Serif" font-size="10.00" fill="#000000">2584</text>
</g>
<!-- 30 -->
<g id="node30" class="node">
<title>30</title>
<ellipse fill="#d95f02" stroke="#d95f02" cx="55.8226" cy="-365.0493" rx="18" ry="18"/>
<text text-anchor="middle" x="55.8226" y="-368.0493" font-family="Helvetica,sans-Serif" font-size="10.00" fill="#000000">labeling</text>
<text text-anchor="middle" x="55.8226" y="-356.0493" font-family="Helvetica,sans-Serif" font-size="10.00" fill="#000000">2580</text>
</g>
<!-- 31 -->
<g id="node31" class="node">
<title>31</title>
<ellipse fill="#e7298a" stroke="#e7298a" cx="68.0815" cy="-449.6058" rx="18" ry="18"/>
<text text-anchor="middle" x="68.0815" y="-452.6058" font-family="Helvetica,sans-Serif" font-size="10.00" fill="#000000">munsell</text>
<text text-anchor="middle" x="68.0815" y="-440.6058" font-family="Helvetica,sans-Serif" font-size="10.00" fill="#000000">2579</text>
</g>
<!-- 32 -->
<g id="node32" class="node">
<title>32</title>
<ellipse fill="#e7298a" stroke="#e7298a" cx="174.0964" cy="-346.9128" rx="18" ry="18"/>
<text text-anchor="middle" x="174.0964" y="-349.9128" font-family="Helvetica,sans-Serif" font-size="10.00" fill="#000000">scales</text>
<text text-anchor="middle" x="174.0964" y="-337.9128" font-family="Helvetica,sans-Serif" font-size="10.00" fill="#000000">2578</text>
</g>
<!-- 33 -->
<g id="node33" class="node">
<title>33</title>
<ellipse fill="#d95f02" stroke="#d95f02" cx="260.0633" cy="-497.1183" rx="18" ry="18"/>
<text text-anchor="middle" x="260.0633" y="-500.1183" font-family="Helvetica,sans-Serif" font-size="10.00" fill="#000000">gtable</text>
<text text-anchor="middle" x="260.0633" y="-488.1183" font-family="Helvetica,sans-Serif" font-size="10.00" fill="#000000">2554</text>
</g>
<!-- 34 -->
<g id="node34" class="node">
<title>34</title>
<ellipse fill="#7570b3" stroke="#7570b3" cx="319.6524" cy="-410.0145" rx="18" ry="18"/>
<text text-anchor="middle" x="319.6524" y="-413.0145" font-family="Helvetica,sans-Serif" font-size="10.00" fill="#000000">ggplot2</text>
<text text-anchor="middle" x="319.6524" y="-401.0145" font-family="Helvetica,sans-Serif" font-size="10.00" fill="#000000">2507</text>
</g>
<!-- 35 -->
<g id="node35" class="node">
<title>35</title>
<ellipse fill="#d95f02" stroke="#d95f02" cx="616.064" cy="-595.4284" rx="18" ry="18"/>
<text text-anchor="middle" x="616.064" y="-598.4284" font-family="Helvetica,sans-Serif" font-size="10.00" fill="#000000">jsonlite</text>
<text text-anchor="middle" x="616.064" y="-586.4284" font-family="Helvetica,sans-Serif" font-size="10.00" fill="#000000">2399</text>
</g>
<!-- 36 -->
<g id="node36" class="node">
<title>36</title>
<ellipse fill="#1b9e77" stroke="#1b9e77" cx="869.4537" cy="-423.6441" rx="18" ry="18"/>
<text text-anchor="middle" x="869.4537" y="-426.6441" font-family="Helvetica,sans-Serif" font-size="10.00" fill="#000000">mime</text>
<text text-anchor="middle" x="869.4537" y="-414.6441" font-family="Helvetica,sans-Serif" font-size="10.00" fill="#000000">2142</text>
</g>
<!-- 37 -->
<g id="node37" class="node">
<title>37</title>
<ellipse fill="#e7298a" stroke="#e7298a" cx="360.0053" cy="-121.2541" rx="18" ry="18"/>
<text text-anchor="middle" x="360.0053" y="-124.2541" font-family="Helvetica,sans-Serif" font-size="10.00" fill="#000000">purrr</text>
<text text-anchor="middle" x="360.0053" y="-112.2541" font-family="Helvetica,sans-Serif" font-size="10.00" fill="#000000">1820</text>
</g>
<!-- 38 -->
<g id="node38" class="node">
<title>38</title>
<ellipse fill="#d95f02" stroke="#d95f02" cx="383.2796" cy="-18" rx="18" ry="18"/>
<text text-anchor="middle" x="383.2796" y="-21" font-family="Helvetica,sans-Serif" font-size="10.00" fill="#000000">plogr</text>
<text text-anchor="middle" x="383.2796" y="-9" font-family="Helvetica,sans-Serif" font-size="10.00" fill="#000000">1745</text>
</g>
<!-- 39 -->
<g id="node39" class="node">
<title>39</title>
<ellipse fill="#e7298a" stroke="#e7298a" cx="340.8198" cy="-195.6455" rx="18" ry="18"/>
<text text-anchor="middle" x="340.8198" y="-198.6455" font-family="Helvetica,sans-Serif" font-size="10.00" fill="#000000">tidyselect</text>
<text text-anchor="middle" x="340.8198" y="-186.6455" font-family="Helvetica,sans-Serif" font-size="10.00" fill="#000000">1684</text>
</g>
<!-- 40 -->
<g id="node40" class="node">
<title>40</title>
<ellipse fill="#7570b3" stroke="#7570b3" cx="387.7121" cy="-153.0212" rx="18" ry="18"/>
<text text-anchor="middle" x="387.7121" y="-156.0212" font-family="Helvetica,sans-Serif" font-size="10.00" fill="#000000">dplyr</text>
<text text-anchor="middle" x="387.7121" y="-144.0212" font-family="Helvetica,sans-Serif" font-size="10.00" fill="#000000">1671</text>
</g>
<!-- 41 -->
<g id="node41" class="node">
<title>41</title>
<ellipse fill="#1b9e77" stroke="#1b9e77" cx="696.3272" cy="-747.6427" rx="18" ry="18"/>
<text text-anchor="middle" x="696.3272" y="-750.6427" font-family="Helvetica,sans-Serif" font-size="10.00" fill="#000000">curl</text>
<text text-anchor="middle" x="696.3272" y="-738.6427" font-family="Helvetica,sans-Serif" font-size="10.00" fill="#000000">1647</text>
</g>
<!-- 42 -->
<g id="node42" class="node">
<title>42</title>
<ellipse fill="#e7298a" stroke="#e7298a" cx="475.8166" cy="-413.8196" rx="18" ry="18"/>
<text text-anchor="middle" x="475.8166" y="-416.8196" font-family="Helvetica,sans-Serif" font-size="10.00" fill="#000000">htmltools</text>
<text text-anchor="middle" x="475.8166" y="-404.8196" font-family="Helvetica,sans-Serif" font-size="10.00" fill="#000000">1464</text>
</g>
<!-- 43 -->
<g id="node43" class="node">
<title>43</title>
<ellipse fill="#1b9e77" stroke="#1b9e77" cx="825.8755" cy="-343.2869" rx="18" ry="18"/>
<text text-anchor="middle" x="825.8755" y="-346.2869" font-family="Helvetica,sans-Serif" font-size="10.00" fill="#000000">data.table</text>
<text text-anchor="middle" x="825.8755" y="-334.2869" font-family="Helvetica,sans-Serif" font-size="10.00" fill="#000000">1418</text>
</g>
<!-- 44 -->
<g id="node44" class="node">
<title>44</title>
<ellipse fill="#1b9e77" stroke="#1b9e77" cx="773.0973" cy="-95.8676" rx="18" ry="18"/>
<text text-anchor="middle" x="773.0973" y="-98.8676" font-family="Helvetica,sans-Serif" font-size="10.00" fill="#000000">codetools</text>
<text text-anchor="middle" x="773.0973" y="-86.8676" font-family="Helvetica,sans-Serif" font-size="10.00" fill="#000000">1383</text>
</g>
<!-- 45 -->
<g id="node45" class="node">
<title>45</title>
<ellipse fill="#d95f02" stroke="#d95f02" cx="676.9322" cy="-513.459" rx="18" ry="18"/>
<text text-anchor="middle" x="676.9322" y="-516.459" font-family="Helvetica,sans-Serif" font-size="10.00" fill="#000000">yaml</text>
<text text-anchor="middle" x="676.9322" y="-504.459" font-family="Helvetica,sans-Serif" font-size="10.00" fill="#000000">1366</text>
</g>
<!-- 46 -->
<g id="node46" class="node">
<title>46</title>
<ellipse fill="#7570b3" stroke="#7570b3" cx="179.2102" cy="-731.6029" rx="18" ry="18"/>
<text text-anchor="middle" x="179.2102" y="-734.6029" font-family="Helvetica,sans-Serif" font-size="10.00" fill="#000000">survival</text>
<text text-anchor="middle" x="179.2102" y="-722.6029" font-family="Helvetica,sans-Serif" font-size="10.00" fill="#000000">1340</text>
</g>
<!-- 47 -->
<g id="node47" class="node">
<title>47</title>
<ellipse fill="#1b9e77" stroke="#1b9e77" cx="848.8054" cy="-233.4216" rx="18" ry="18"/>
<text text-anchor="middle" x="848.8054" y="-236.4216" font-family="Helvetica,sans-Serif" font-size="10.00" fill="#000000">mvtnorm</text>
<text text-anchor="middle" x="848.8054" y="-224.4216" font-family="Helvetica,sans-Serif" font-size="10.00" fill="#000000">1279</text>
</g>
<!-- 48 -->
<g id="node48" class="node">
<title>48</title>
<ellipse fill="#7570b3" stroke="#7570b3" cx="298.5797" cy="-831.1634" rx="18" ry="18"/>
<text text-anchor="middle" x="298.5797" y="-834.1634" font-family="Helvetica,sans-Serif" font-size="10.00" fill="#000000">sp</text>
<text text-anchor="middle" x="298.5797" y="-822.1634" font-family="Helvetica,sans-Serif" font-size="10.00" fill="#000000">1074</text>
</g>
<!-- 49 -->
<g id="node49" class="node">
<title>49</title>
<ellipse fill="#7570b3" stroke="#7570b3" cx="410.807" cy="-811.2147" rx="18" ry="18"/>
<text text-anchor="middle" x="410.807" y="-814.2147" font-family="Helvetica,sans-Serif" font-size="10.00" fill="#000000">zoo</text>
<text text-anchor="middle" x="410.807" y="-802.2147" font-family="Helvetica,sans-Serif" font-size="10.00" fill="#000000">1060</text>
</g>
<!-- 50 -->
<g id="node50" class="node">
<title>50</title>
<ellipse fill="#1b9e77" stroke="#1b9e77" cx="540.3296" cy="-823.2096" rx="18" ry="18"/>
<text text-anchor="middle" x="540.3296" y="-826.2096" font-family="Helvetica,sans-Serif" font-size="10.00" fill="#000000">base64enc</text>
<text text-anchor="middle" x="540.3296" y="-814.2096" font-family="Helvetica,sans-Serif" font-size="10.00" fill="#000000">1042</text>
</g>
<!-- 51 -->
<g id="node51" class="node">
<title>51</title>
<ellipse fill="#1b9e77" stroke="#1b9e77" cx="599.7103" cy="-749.5242" rx="18" ry="18"/>
<text text-anchor="middle" x="599.7103" y="-752.5242" font-family="Helvetica,sans-Serif" font-size="10.00" fill="#000000">xtable</text>
<text text-anchor="middle" x="599.7103" y="-740.5242" font-family="Helvetica,sans-Serif" font-size="10.00" fill="#000000">1034</text>
</g>
<!-- 52 -->
<g id="node52" class="node">
<title>52</title>
<ellipse fill="#d95f02" stroke="#d95f02" cx="827.5101" cy="-531.5133" rx="18" ry="18"/>
<text text-anchor="middle" x="827.5101" y="-534.5133" font-family="Helvetica,sans-Serif" font-size="10.00" fill="#000000">sys</text>
<text text-anchor="middle" x="827.5101" y="-522.5133" font-family="Helvetica,sans-Serif" font-size="10.00" fill="#000000">1021</text>
</g>
<!-- 53 -->
<g id="node53" class="node">
<title>53</title>
<ellipse fill="#7570b3" stroke="#7570b3" cx="587.0392" cy="-505.5152" rx="18" ry="18"/>
<text text-anchor="middle" x="587.0392" y="-508.5152" font-family="Helvetica,sans-Serif" font-size="10.00" fill="#000000">htmlwidgets</text>
<text text-anchor="middle" x="587.0392" y="-496.5152" font-family="Helvetica,sans-Serif" font-size="10.00" fill="#000000">1018</text>
</g>
<!-- 54 -->
<g id="node54" class="node">
<title>54</title>
<ellipse fill="#e7298a" stroke="#e7298a" cx="804.1145" cy="-595.1922" rx="18" ry="18"/>
<text text-anchor="middle" x="804.1145" y="-598.1922" font-family="Helvetica,sans-Serif" font-size="10.00" fill="#000000">askpass</text>
<text text-anchor="middle" x="804.1145" y="-586.1922" font-family="Helvetica,sans-Serif" font-size="10.00" fill="#000000">1014</text>
</g>
<!-- 55 -->
<g id="node55" class="node">
<title>55</title>
<ellipse fill="#7570b3" stroke="#7570b3" cx="770.3492" cy="-652.8197" rx="18" ry="18"/>
<text text-anchor="middle" x="770.3492" y="-655.8197" font-family="Helvetica,sans-Serif" font-size="10.00" fill="#000000">openssl</text>
<text text-anchor="middle" x="770.3492" y="-643.8197" font-family="Helvetica,sans-Serif" font-size="10.00" fill="#000000">1004</text>
</g>
</g>
</svg>

